<?xml version="1.0" encoding="UTF-8"?>
<!DOCTYPE svg PUBLIC "-//W3C//DTD SVG 1.1//EN" "http://www.w3.org/Graphics/SVG/1.1/DTD/svg11.dtd">
<svg xmlns="http://www.w3.org/2000/svg" version="1.1" width="417px" height="296px" style="shape-rendering:geometricPrecision; text-rendering:geometricPrecision; image-rendering:optimizeQuality; fill-rule:evenodd; clip-rule:evenodd" xmlns:xlink="http://www.w3.org/1999/xlink">
<g><path style="opacity:1" fill="#f1f1f1" d="M -0.5,-0.5 C 138.5,-0.5 277.5,-0.5 416.5,-0.5C 416.5,98.1667 416.5,196.833 416.5,295.5C 277.5,295.5 138.5,295.5 -0.5,295.5C -0.5,196.833 -0.5,98.1667 -0.5,-0.5 Z"/></g>
<g><path style="opacity:1" fill="#221d2f" d="M 186.5,15.5 C 189.48,15.2411 191.313,16.5744 192,19.5C 193.176,23.0274 194.342,26.5274 195.5,30C 194.552,30.4828 193.552,30.6495 192.5,30.5C 192.5,29.5 192.5,28.5 192.5,27.5C 188.927,27.0412 185.927,28.0412 183.5,30.5C 183.167,29.8333 182.833,29.1667 182.5,28.5C 184.24,24.2801 185.574,19.9468 186.5,15.5 Z"/></g>
<g><path style="opacity:1" fill="#1f1a26" d="M 209.5,15.5 C 211.164,16.9488 211.998,18.9488 212,21.5C 213.833,19.6667 215.667,17.8333 217.5,16C 218.5,15.3333 219.5,15.3333 220.5,16C 219.36,17.9734 218.027,19.8067 216.5,21.5C 218.293,24.2511 219.959,27.0844 221.5,30C 220.5,30.6667 219.5,30.6667 218.5,30C 215.362,21.3969 212.696,21.5636 210.5,30.5C 209.506,25.544 209.173,20.544 209.5,15.5 Z"/></g>
<g><path style="opacity:1" fill="#282334" d="M 222.5,16.5 C 223.251,15.4265 224.251,15.2599 225.5,16C 226.542,17.918 227.708,19.7513 229,21.5C 229.36,19.5789 230.194,17.9122 231.5,16.5C 232.5,15.1667 233.5,15.1667 234.5,16.5C 231.074,20.5383 229.741,25.2049 230.5,30.5C 229.5,30.5 228.5,30.5 227.5,30.5C 228.051,24.9553 226.385,20.2886 222.5,16.5 Z"/></g>
<g><path style="opacity:1" fill="#2d1c2d" d="M 194.5,16.5 C 195.251,15.4265 196.251,15.2599 197.5,16C 199.041,17.5793 200.208,19.4127 201,21.5C 201.833,19.8333 202.667,18.1667 203.5,16.5C 204.723,15.3861 206.056,15.2195 207.5,16C 203.701,20.0975 202.035,24.9308 202.5,30.5C 201.5,30.5 200.5,30.5 199.5,30.5C 200.552,24.7428 198.885,20.0762 194.5,16.5 Z"/></g>
<g><path style="opacity:1" fill="#d6cdbf" d="M 187.5,19.5 C 189.741,20.2998 190.741,21.9664 190.5,24.5C 189.022,24.762 187.689,24.4287 186.5,23.5C 187.246,22.2638 187.579,20.9305 187.5,19.5 Z"/></g>
<g><path style="opacity:1" fill="#aba5ad" d="M 134.5,48.5 C 138.473,49.0755 139.473,51.2421 137.5,55C 136.216,55.6838 135.049,55.5171 134,54.5C 133.322,52.4024 133.489,50.4024 134.5,48.5 Z"/></g>
<g><path style="opacity:1" fill="#9d9ca6" d="M 121.5,48.5 C 126.014,48.6932 127.347,50.8599 125.5,55C 120.999,55.6632 120.665,55.1632 124.5,53.5C 122.244,52.5791 121.244,50.9124 121.5,48.5 Z"/></g>
<g><path style="opacity:1" fill="#e9f3ee" d="M 230.5,49.5 C 231.649,49.7911 232.316,50.6244 232.5,52C 232.316,53.3756 231.649,54.2089 230.5,54.5C 230.5,52.8333 230.5,51.1667 230.5,49.5 Z"/></g>
<g><path style="opacity:1" fill="#90787f" d="M 230.5,49.5 C 233.004,47.9692 234.337,48.8025 234.5,52C 234.337,55.1975 233.004,56.0308 230.5,54.5C 231.649,54.2089 232.316,53.3756 232.5,52C 232.316,50.6244 231.649,49.7911 230.5,49.5 Z"/></g>
<g><path style="opacity:1" fill="#7d7c9d" d="M 235.5,48.5 C 237.96,50.3981 238.96,52.7314 238.5,55.5C 237.217,53.2699 236.217,50.9366 235.5,48.5 Z"/></g>
<g><path style="opacity:1" fill="#90625c" d="M 250.5,49.5 C 251.209,48.596 252.209,48.2627 253.5,48.5C 253.663,50.8568 253.497,53.1902 253,55.5C 252.998,52.9488 252.164,50.9488 250.5,49.5 Z"/></g>
<g><path style="opacity:1" fill="#7c525b" d="M 254.5,49.5 C 255.209,48.596 256.209,48.2627 257.5,48.5C 257.663,50.8568 257.497,53.1902 257,55.5C 256.998,52.9488 256.164,50.9488 254.5,49.5 Z"/></g>
<g><path style="opacity:1" fill="#747a99" d="M 272.5,48.5 C 277.328,48.3852 278.661,50.5519 276.5,55C 275.207,55.49 273.873,55.6567 272.5,55.5C 272.5,53.1667 272.5,50.8333 272.5,48.5 Z"/></g>
<g><path style="opacity:1" fill="#edf3e9" d="M 273.5,49.5 C 274.649,49.7911 275.316,50.6244 275.5,52C 275.167,52.8333 274.833,53.6667 274.5,54.5C 273.548,52.9547 273.215,51.288 273.5,49.5 Z"/></g>
<g><path style="opacity:1" fill="#5b5b80" d="M 156.5,45.5 C 157.138,47.5732 158.138,49.5732 159.5,51.5C 158.273,52.5904 157.44,53.9238 157,55.5C 156.502,52.1832 156.335,48.8499 156.5,45.5 Z"/></g>
<g><path style="opacity:1" fill="#685768" d="M 163.5,49.5 C 164.568,48.5655 165.901,48.2322 167.5,48.5C 167.663,50.8568 167.497,53.1902 167,55.5C 166.517,54.552 166.351,53.552 166.5,52.5C 163.282,52.6509 162.949,53.4842 165.5,55C 164.552,55.4828 163.552,55.6495 162.5,55.5C 162.5,54.1667 162.5,52.8333 162.5,51.5C 163.978,51.762 165.311,51.4287 166.5,50.5C 165.675,49.6143 164.675,49.281 163.5,49.5 Z"/></g>
<g><path style="opacity:1" fill="#887d82" d="M 171.5,49.5 C 172.542,48.2089 173.708,48.2089 175,49.5C 175.743,51.4406 175.576,53.2739 174.5,55C 173.5,55.6667 172.5,55.6667 171.5,55C 174.139,52.992 174.139,51.1587 171.5,49.5 Z"/></g>
<g><path style="opacity:1" fill="#6f667a" d="M 180.5,49.5 C 181.478,49.811 182.145,50.4777 182.5,51.5C 180.922,52.2978 179.256,52.7978 177.5,53C 178.025,53.6924 178.692,54.1924 179.5,54.5C 180.451,53.6744 181.451,53.5078 182.5,54C 177.497,56.6724 175.664,55.1724 177,49.5C 178.292,48.2089 179.458,48.2089 180.5,49.5 Z"/></g>
<g><path style="opacity:1" fill="#ebeee6" d="M 180.5,49.5 C 180.157,51.2252 179.157,51.7252 177.5,51C 178.244,49.9614 179.244,49.4614 180.5,49.5 Z"/></g>
<g><path style="opacity:1" fill="#6f616f" d="M 190.5,48.5 C 193.797,48.3287 194.131,48.9954 191.5,50.5C 192.325,51.3857 193.325,51.719 194.5,51.5C 194.5,52.8333 194.5,54.1667 194.5,55.5C 189.959,55.6691 189.626,55.0025 193.5,53.5C 190.205,52.9216 189.205,51.2549 190.5,48.5 Z"/></g>
<g><path style="opacity:1" fill="#80788f" d="M 222.5,45.5 C 224.084,47.5286 225.417,49.8619 226.5,52.5C 226.154,53.6956 225.654,53.6956 225,52.5C 224.751,53.624 224.251,54.624 223.5,55.5C 222.513,52.2317 222.18,48.8984 222.5,45.5 Z"/></g>
<g><path style="opacity:1" fill="#927b8a" d="M 265.5,48.5 C 267.428,50.6006 268.095,52.9339 267.5,55.5C 266.056,53.3921 265.39,51.0588 265.5,48.5 Z"/></g>
<g><path style="opacity:1" fill="#7585b3" d="M 149.5,50.5 C 150.559,52.726 150.392,55.0594 149,57.5C 148.009,55.5527 147.675,53.5527 148,51.5C 149.087,53.9316 149.587,53.5983 149.5,50.5 Z"/></g>
<g><path style="opacity:1" fill="#7585b3" d="M 245.5,50.5 C 246.559,52.726 246.392,55.0594 245,57.5C 244.009,55.5527 243.675,53.5527 244,51.5C 245.087,53.9316 245.587,53.5983 245.5,50.5 Z"/></g>
<g><path style="opacity:1" fill="#7b7487" d="M 282.5,45.5 C 284.402,48.3373 285.069,51.6707 284.5,55.5C 282.833,55.5 281.167,55.5 279.5,55.5C 279.5,53.1667 279.5,50.8333 279.5,48.5C 280.5,48.5 281.5,48.5 282.5,48.5C 282.5,47.5 282.5,46.5 282.5,45.5 Z"/></g>
<g><path style="opacity:1" fill="#ebf3ec" d="M 280.5,49.5 C 281.649,49.7911 282.316,50.6244 282.5,52C 282.167,52.8333 281.833,53.6667 281.5,54.5C 280.548,52.9547 280.215,51.288 280.5,49.5 Z"/></g>
<g><path style="opacity:1" fill="#837e90" d="M 289.5,48.5 C 290.552,48.3505 291.552,48.5172 292.5,49C 290.44,50.4926 290.107,52.3259 291.5,54.5C 293.657,53.1523 294.99,51.1523 295.5,48.5C 296.833,50.8333 296.833,53.1667 295.5,55.5C 293.398,55.5207 291.232,55.1874 289,54.5C 288.322,52.4024 288.489,50.4024 289.5,48.5 Z"/></g>
<g><path style="opacity:1" fill="#6b6578" d="M 204.5,49.5 C 205.309,51.2922 205.809,53.2922 206,55.5C 207,42.1667 208,42.1667 209,55.5C 209.515,46.2356 210.348,46.2356 211.5,55.5C 212.474,53.2573 212.808,50.924 212.5,48.5C 214.167,48.5 215.833,48.5 217.5,48.5C 218.012,57.8106 218.845,57.8106 220,48.5C 220.272,51.2538 220.772,53.9205 221.5,56.5C 213.5,56.5 205.5,56.5 197.5,56.5C 198.989,53.1008 199.989,49.4342 200.5,45.5C 201.386,46.325 201.719,47.325 201.5,48.5C 202.791,48.2627 203.791,48.596 204.5,49.5 Z"/></g>
<g><path style="opacity:1" fill="#dbebde" d="M 214.5,49.5 C 216.308,50.9179 216.975,52.9179 216.5,55.5C 215.5,55.5 214.5,55.5 213.5,55.5C 213.325,53.3792 213.659,51.3792 214.5,49.5 Z"/></g>
<g><path style="opacity:1" fill="#e3d6c8" d="M 204.5,49.5 C 204.5,51.5 204.5,53.5 204.5,55.5C 203.5,55.5 202.5,55.5 201.5,55.5C 201.5,53.5 201.5,51.5 201.5,49.5C 202.5,49.5 203.5,49.5 204.5,49.5 Z"/></g>
<g><path style="opacity:1" fill="#1d2835" d="M 197.5,56.5 C 205.5,56.5 213.5,56.5 221.5,56.5C 267.186,65.0185 295.019,92.0185 305,137.5C 308.984,190.4 286.484,226.567 237.5,246C 230.879,247.491 224.212,248.658 217.5,249.5C 210.833,249.5 204.167,249.5 197.5,249.5C 150.362,241.668 121.862,214.335 112,167.5C 108.016,124.304 124.183,91.1377 160.5,68C 171.934,61.2439 184.268,57.4106 197.5,56.5 Z"/></g>
<g><path style="opacity:1" fill="#4a515d" d="M 197.5,62.5 C 246.634,60.5071 279.467,82.5071 296,128.5C 304.953,171.073 291.786,204.906 256.5,230C 212.619,252.727 173.453,246.56 139,211.5C 110.71,173.023 110.377,134.356 138,95.5C 153.805,77.019 173.638,66.019 197.5,62.5 Z"/></g>
<g><path style="opacity:1" fill="#959fab" d="M 198.5,84.5 C 232.433,82.3736 256.933,96.3736 272,126.5C 281.773,155.38 276.273,180.88 255.5,203C 227.374,225.591 198.041,227.258 167.5,208C 141.696,186.019 134.196,158.852 145,126.5C 155.981,103.677 173.814,89.6773 198.5,84.5 Z"/></g>
<g><path style="opacity:1" fill="#dfdfe5" d="M 260.5,114.5 C 245.226,105.759 233.393,109.092 225,124.5C 222.522,144.12 231.022,153.953 250.5,154C 263.038,150.084 269.038,141.584 268.5,128.5C 268.721,125.903 269.221,125.903 270,128.5C 280.161,161.682 271.328,188.516 243.5,209C 208.633,226.655 178.8,220.488 154,190.5C 141.065,170.218 139.065,148.885 148,126.5C 148.464,127.094 148.631,127.761 148.5,128.5C 149.208,147.38 158.875,155.547 177.5,153C 189.816,147.538 194.649,138.038 192,124.5C 185.809,112.101 175.975,107.601 162.5,111C 160.612,112.394 158.612,113.56 156.5,114.5C 155.475,114.103 155.308,113.437 156,112.5C 179.768,85.8524 207.935,80.0191 240.5,95C 248.215,99.7089 255.049,105.542 261,112.5C 261.692,113.437 261.525,114.103 260.5,114.5 Z"/></g>
<g><path style="opacity:1" fill="#414c58" d="M 148.5,128.5 C 149.822,123.151 152.489,118.484 156.5,114.5C 158.612,113.56 160.612,112.394 162.5,111C 175.975,107.601 185.809,112.101 192,124.5C 194.649,138.038 189.816,147.538 177.5,153C 158.875,155.547 149.208,147.38 148.5,128.5 Z"/></g>
<g><path style="opacity:1" fill="#414c59" d="M 260.5,114.5 C 264.511,118.484 267.178,123.151 268.5,128.5C 269.038,141.584 263.038,150.084 250.5,154C 231.022,153.953 222.522,144.12 225,124.5C 233.393,109.092 245.226,105.759 260.5,114.5 Z"/></g>
<g><path style="opacity:1" fill="#b9b9b9" d="M 164.5,112.5 C 182.469,111.303 190.969,119.637 190,137.5C 184.519,149.656 175.352,153.823 162.5,150C 153.011,144.563 149.511,136.397 152,125.5C 154.353,119.315 158.52,114.982 164.5,112.5 Z"/></g>
<g><path style="opacity:1" fill="#b9b9b9" d="M 241.5,112.5 C 262.142,112.774 269.309,122.774 263,142.5C 255.092,152.081 245.592,153.914 234.5,148C 223.833,137.333 223.833,126.667 234.5,116C 236.713,114.384 239.047,113.217 241.5,112.5 Z"/></g>
<g><path style="opacity:1" fill="#3f4957" d="M 203.5,155.5 C 222.708,155.869 231.542,165.536 230,184.5C 222.788,199.348 211.621,203.514 196.5,197C 185.802,188.27 183.635,177.77 190,165.5C 193.802,161.037 198.302,157.703 203.5,155.5 Z"/></g>
<g><path style="opacity:1" fill="#b8b8b9" d="M 202.5,158.5 C 223.221,158.034 231.054,167.701 226,187.5C 218.104,198.104 208.27,200.27 196.5,194C 185.833,183.333 185.833,172.667 196.5,162C 198.727,161.059 200.727,159.892 202.5,158.5 Z"/></g>
<g><path style="opacity:1" fill="#7a8088" d="M 197.5,249.5 C 204.167,249.5 210.833,249.5 217.5,249.5C 212.433,250.188 207.267,250.855 202,251.5C 200.378,250.901 198.878,250.234 197.5,249.5 Z"/></g>
<g><path style="opacity:1" fill="#9a949d" d="M 266.5,256.5 C 264.517,256.843 263.183,256.176 262.5,254.5C 262.5,253.167 262.5,251.833 262.5,250.5C 263.5,250.5 264.5,250.5 265.5,250.5C 265.833,252.5 266.167,254.5 266.5,256.5 Z"/></g>
<g><path style="opacity:1" fill="#dca979" d="M 182.5,253.5 C 183.806,256.687 183.806,260.02 182.5,263.5C 182.363,260.447 182.363,257.114 182.5,253.5 Z"/></g>
<g><path style="opacity:1" fill="#554e5d" d="M 222.5,256.5 C 222.119,255.069 221.119,254.236 219.5,254C 221.259,253.202 222.926,253.369 224.5,254.5C 224.145,255.522 223.478,256.189 222.5,256.5 Z"/></g>
<g><path style="opacity:1" fill="#dca979" d="M 275.5,253.5 C 276.806,256.687 276.806,260.02 275.5,263.5C 275.363,260.447 275.363,257.114 275.5,253.5 Z"/></g>
<g><path style="opacity:1" fill="#986f57" d="M 291.5,250.5 C 291.81,253.713 291.477,256.713 290.5,259.5C 290.923,257.219 290.256,255.552 288.5,254.5C 288.167,254.5 287.833,254.5 287.5,254.5C 288.209,253.596 289.209,253.263 290.5,253.5C 290.263,252.209 290.596,251.209 291.5,250.5 Z"/></g>
<g><path style="opacity:1" fill="#c8c0c2" d="M 117.5,254.5 C 118.833,256.167 118.833,257.833 117.5,259.5C 116.5,259.5 115.5,259.5 114.5,259.5C 114.5,257.833 114.5,256.167 114.5,254.5C 115.5,254.5 116.5,254.5 117.5,254.5 Z"/></g>
<g><path style="opacity:1" fill="#4e4a6d" d="M 153.5,253.5 C 155.167,253.5 156.833,253.5 158.5,253.5C 158.663,255.857 158.497,258.19 158,260.5C 156.891,252.715 155.558,252.715 154,260.5C 153.503,258.19 153.337,255.857 153.5,253.5 Z"/></g>
<g><path style="opacity:1" fill="#676a9d" d="M 127.5,253.5 C 129.273,254.314 129.773,255.648 129,257.5C 128.209,256.255 127.709,254.922 127.5,253.5 Z"/></g>
<g><path style="opacity:1" fill="#634558" d="M 134.5,253.5 C 136.167,253.5 137.833,253.5 139.5,253.5C 139.663,255.857 139.497,258.19 139,260.5C 137.891,252.715 136.558,252.715 135,260.5C 134.503,258.19 134.337,255.857 134.5,253.5 Z"/></g>
<g><path style="opacity:1" fill="#78809a" d="M 194.5,253.5 C 195.552,253.351 196.552,253.517 197.5,254C 195.44,255.493 195.107,257.326 196.5,259.5C 197.451,258.674 198.451,258.508 199.5,259C 193.756,261.387 192.09,259.554 194.5,253.5 Z"/></g>
<g><path style="opacity:1" fill="#5984b3" d="M 208.5,253.5 C 209.552,253.351 210.552,253.517 211.5,254C 209.901,255.786 209.067,257.953 209,260.5C 208.503,258.19 208.337,255.857 208.5,253.5 Z"/></g>
<g><path style="opacity:1" fill="#72709d" d="M 247.5,253.5 C 249.273,254.314 249.773,255.648 249,257.5C 248.209,256.255 247.709,254.922 247.5,253.5 Z"/></g>
<g><path style="opacity:1" fill="#4c6b9f" d="M 294.5,253.5 C 295.552,253.351 296.552,253.517 297.5,254C 295.901,255.786 295.067,257.953 295,260.5C 294.503,258.19 294.337,255.857 294.5,253.5 Z"/></g>
<g><path style="opacity:1" fill="#495f88" d="M 117.5,254.5 C 116.5,254.5 115.5,254.5 114.5,254.5C 114.5,256.167 114.5,257.833 114.5,259.5C 115.5,259.5 116.5,259.5 117.5,259.5C 116.791,260.404 115.791,260.737 114.5,260.5C 113.22,260.637 112.887,258.303 113.5,253.5C 115.099,253.232 116.432,253.566 117.5,254.5 Z"/></g>
<g><path style="opacity:1" fill="#635b6f" d="M 124.5,254.5 C 126.048,254.821 126.715,255.821 126.5,257.5C 124.801,257.34 123.134,257.506 121.5,258C 122.649,259.744 123.983,259.911 125.5,258.5C 126.696,258.846 126.696,259.346 125.5,260C 121.333,261.167 119.833,259.667 121,255.5C 122.756,256.985 123.923,256.652 124.5,254.5 Z"/></g>
<g><path style="opacity:1" fill="#494e70" d="M 142.5,254.5 C 144.039,256.982 145.539,256.982 147,254.5C 147.483,255.448 147.649,256.448 147.5,257.5C 145.549,257.227 144.049,257.893 143,259.5C 142.506,257.866 142.34,256.199 142.5,254.5 Z"/></g>
<g><path style="opacity:1" fill="#7c6f76" d="M 161.5,253.5 C 163.144,253.286 164.644,253.62 166,254.5C 166.495,256.473 166.662,258.473 166.5,260.5C 164.5,260.5 162.5,260.5 160.5,260.5C 160.5,259.167 160.5,257.833 160.5,256.5C 161.978,256.762 163.311,256.429 164.5,255.5C 163.726,254.289 162.893,254.289 162,255.5C 161.536,254.906 161.369,254.239 161.5,253.5 Z"/></g>
<g><path style="opacity:1" fill="#7c6f76" d="M 176.5,253.5 C 178.144,253.286 179.644,253.62 181,254.5C 181.495,256.473 181.662,258.473 181.5,260.5C 179.5,260.5 177.5,260.5 175.5,260.5C 175.5,259.167 175.5,257.833 175.5,256.5C 176.978,256.762 178.311,256.429 179.5,255.5C 178.726,254.289 177.893,254.289 177,255.5C 176.536,254.906 176.369,254.239 176.5,253.5 Z"/></g>
<g><path style="opacity:1" fill="#494e70" d="M 186.5,254.5 C 188.039,256.982 189.539,256.982 191,254.5C 191.483,255.448 191.649,256.448 191.5,257.5C 189.549,257.227 188.049,257.893 187,259.5C 186.506,257.866 186.34,256.199 186.5,254.5 Z"/></g>
<g><path style="opacity:1" fill="#595670" d="M 262.5,254.5 C 263.183,256.176 264.517,256.843 266.5,256.5C 267.249,257.531 267.915,258.698 268.5,260C 266.939,260.188 266.272,259.355 266.5,257.5C 264.833,257.5 263.167,257.5 261.5,257.5C 259.93,259.753 260.263,258.753 262.5,254.5 Z"/></g>
<g><path style="opacity:1" fill="#5a4556" d="M 299.5,254.5 C 300.568,253.566 301.901,253.232 303.5,253.5C 303.663,255.857 303.497,258.19 303,260.5C 302.517,259.552 302.351,258.552 302.5,257.5C 299.282,257.651 298.949,258.484 301.5,260C 300.552,260.483 299.552,260.649 298.5,260.5C 298.5,259.167 298.5,257.833 298.5,256.5C 299.978,256.762 301.311,256.429 302.5,255.5C 301.675,254.614 300.675,254.281 299.5,254.5 Z"/></g>
<g><path style="opacity:1" fill="#726075" d="M 241.5,254.5 C 242.209,253.596 243.209,253.263 244.5,253.5C 244.281,252.325 244.614,251.325 245.5,250.5C 246.487,253.768 246.82,257.102 246.5,260.5C 240.977,261.327 239.31,259.327 241.5,254.5 Z"/></g>
<g><path style="opacity:1" fill="#dfe6e2" d="M 241.5,254.5 C 242.5,254.5 243.5,254.5 244.5,254.5C 244.785,256.288 244.452,257.955 243.5,259.5C 241.783,258.332 241.116,256.665 241.5,254.5 Z"/></g>
<g><path style="opacity:1" fill="#5e5274" d="M 130.5,257.5 C 131.713,258.497 131.546,259.497 130,260.5C 129.53,259.423 129.697,258.423 130.5,257.5 Z"/></g>
<g><path style="opacity:1" fill="#5b6e97" d="M 168.5,253.5 C 169.289,253.783 169.956,254.283 170.5,255C 169.62,256.356 169.286,257.856 169.5,259.5C 172.766,259.567 174.266,257.901 174,254.5C 175.568,258.917 174.068,260.917 169.5,260.5C 168.22,260.637 167.887,258.303 168.5,253.5 Z"/></g>
<g><path style="opacity:1" fill="#575464" d="M 222.5,256.5 C 222.586,257.496 222.252,258.329 221.5,259C 222.5,259.333 223.5,259.667 224.5,260C 219.029,260.771 218.363,259.605 222.5,256.5 Z"/></g>
<g><path style="opacity:1" fill="#635978" d="M 250.5,257.5 C 251.043,257.56 251.376,257.893 251.5,258.5C 250.985,260.225 250.318,261.892 249.5,263.5C 249.167,263.333 248.833,263.167 248.5,263C 249.244,261.185 249.911,259.352 250.5,257.5 Z"/></g>
<g><path style="opacity:1" fill="#57485d" d="M 282.5,259.5 C 281.791,260.404 280.791,260.737 279.5,260.5C 279.5,259.167 279.5,257.833 279.5,256.5C 283.971,256.328 284.304,255.494 280.5,254C 281.793,253.51 283.127,253.343 284.5,253.5C 284.663,255.857 284.497,258.19 284,260.5C 283.617,259.944 283.117,259.611 282.5,259.5 Z"/></g>
<g><path style="opacity:1" fill="#d8ecec" d="M 282.5,259.5 C 280.663,259.361 280.33,258.694 281.5,257.5C 282.298,257.957 282.631,258.624 282.5,259.5 Z"/></g>
<g><path style="opacity:1" fill="#6d647b" d="M 291.5,250.5 C 292.479,253.625 292.813,256.958 292.5,260.5C 286.977,261.327 285.31,259.327 287.5,254.5C 287.833,254.5 288.167,254.5 288.5,254.5C 288.077,256.781 288.744,258.448 290.5,259.5C 291.477,256.713 291.81,253.713 291.5,250.5 Z"/></g>
<g><path style="opacity:1" fill="#ecf3eb" d="M 288.5,254.5 C 290.256,255.552 290.923,257.219 290.5,259.5C 288.744,258.448 288.077,256.781 288.5,254.5 Z"/></g>
</svg>
