<?xml version="1.0" encoding="UTF-8"?>
<!DOCTYPE svg PUBLIC "-//W3C//DTD SVG 1.1//EN" "http://www.w3.org/Graphics/SVG/1.1/DTD/svg11.dtd">
<svg xmlns="http://www.w3.org/2000/svg" version="1.1" width="407px" height="293px" style="shape-rendering:geometricPrecision; text-rendering:geometricPrecision; image-rendering:optimizeQuality; fill-rule:evenodd; clip-rule:evenodd" xmlns:xlink="http://www.w3.org/1999/xlink">
<g><path style="opacity:1" fill="#f1f1f1" d="M -0.5,-0.5 C 135.167,-0.5 270.833,-0.5 406.5,-0.5C 406.5,97.1667 406.5,194.833 406.5,292.5C 270.833,292.5 135.167,292.5 -0.5,292.5C -0.5,194.833 -0.5,97.1667 -0.5,-0.5 Z"/></g>
<g><path style="opacity:1" fill="#282334" d="M 193.5,17.5 C 194.251,16.4265 195.251,16.2599 196.5,17C 197.542,18.918 198.708,20.7513 200,22.5C 200.36,20.5789 201.194,18.9122 202.5,17.5C 203.5,16.1667 204.5,16.1667 205.5,17.5C 202.074,21.5383 200.741,26.2049 201.5,31.5C 200.5,31.5 199.5,31.5 198.5,31.5C 199.051,25.9553 197.385,21.2886 193.5,17.5 Z"/></g>
<g><path style="opacity:1" fill="#1f1a26" d="M 208.5,16.5 C 210.164,17.9488 210.998,19.9488 211,22.5C 212.833,20.6667 214.667,18.8333 216.5,17C 217.5,16.3333 218.5,16.3333 219.5,17C 218.36,18.9734 217.027,20.8067 215.5,22.5C 217.293,25.2511 218.959,28.0844 220.5,31C 219.5,31.6667 218.5,31.6667 217.5,31C 214.362,22.3969 211.696,22.5636 209.5,31.5C 208.506,26.544 208.173,21.544 208.5,16.5 Z"/></g>
<g><path style="opacity:1" fill="#282334" d="M 221.5,17.5 C 222.251,16.4265 223.251,16.2599 224.5,17C 225.542,18.918 226.708,20.7513 228,22.5C 228.36,20.5789 229.194,18.9122 230.5,17.5C 231.5,16.1667 232.5,16.1667 233.5,17.5C 230.074,21.5383 228.741,26.2049 229.5,31.5C 228.5,31.5 227.5,31.5 226.5,31.5C 227.051,25.9553 225.385,21.2886 221.5,17.5 Z"/></g>
<g><path style="opacity:1" fill="#261e28" d="M 183.5,16.5 C 186.798,16.0162 189.464,17.0162 191.5,19.5C 188.691,19.5236 185.857,19.8569 183,20.5C 180.989,28.1699 183.322,30.1699 190,26.5C 192.021,28.6512 191.521,30.1512 188.5,31C 180.56,31.3168 177.727,27.4834 180,19.5C 181.145,18.3636 182.312,17.3636 183.5,16.5 Z"/></g>
<g><path style="opacity:1" fill="#7f7d93" d="M 257.5,50.5 C 256.5,50.5 255.5,50.5 254.5,50.5C 254.5,52.1667 254.5,53.8333 254.5,55.5C 255.5,55.5 256.5,55.5 257.5,55.5C 256.081,56.4511 254.415,56.7845 252.5,56.5C 252.18,53.1016 252.513,49.7683 253.5,46.5C 254.386,47.325 254.719,48.325 254.5,49.5C 255.791,49.2627 256.791,49.596 257.5,50.5 Z"/></g>
<g><path style="opacity:1" fill="#847685" d="M 165.5,49.5 C 171.235,48.8213 172.902,51.1546 170.5,56.5C 169.167,48.5 167.833,48.5 166.5,56.5C 165.526,54.2573 165.192,51.924 165.5,49.5 Z"/></g>
<g><path style="opacity:1" fill="#726b77" d="M 193.5,52.5 C 192.596,51.791 192.263,50.791 192.5,49.5C 194.429,49.2308 196.095,49.7308 197.5,51C 196.451,51.4922 195.451,51.3256 194.5,50.5C 193.702,50.9569 193.369,51.6236 193.5,52.5 Z"/></g>
<g><path style="opacity:1" fill="#8b7e89" d="M 260.5,49.5 C 263.95,48.7564 265.616,50.0897 265.5,53.5C 261.029,53.6724 260.696,54.5057 264.5,56C 259.57,56.427 258.237,54.2604 260.5,49.5 Z"/></g>
<g><path style="opacity:1" fill="#5479a7" d="M 199.5,47.5 C 200.267,48.172 200.934,49.0053 201.5,50C 200.68,52.3332 200.347,54.4999 200.5,56.5C 199.144,53.4292 198.811,50.4292 199.5,47.5 Z"/></g>
<g><path style="opacity:1" fill="#bcb8bc" d="M 225.5,49.5 C 225.5,51.8333 225.5,54.1667 225.5,56.5C 219.842,57.3206 218.175,55.154 220.5,50C 222.342,50.068 224.009,49.9014 225.5,49.5 Z"/></g>
<g><path style="opacity:1" fill="#5e5b7c" d="M 225.5,49.5 C 227.167,49.5 228.833,49.5 230.5,49.5C 230.663,51.8568 230.497,54.1902 230,56.5C 228.754,48.8636 227.254,48.8636 225.5,56.5C 225.5,54.1667 225.5,51.8333 225.5,49.5 Z"/></g>
<g><path style="opacity:1" fill="#70576a" d="M 185.5,49.5 C 187.167,49.5 188.833,49.5 190.5,49.5C 190.663,51.8568 190.497,54.1902 190,56.5C 188.891,48.7146 187.558,48.7146 186,56.5C 185.503,54.1902 185.337,51.8568 185.5,49.5 Z"/></g>
<g><path style="opacity:1" fill="#cac3c8" d="M 257.5,50.5 C 258.833,52.1667 258.833,53.8333 257.5,55.5C 256.5,55.5 255.5,55.5 254.5,55.5C 254.5,53.8333 254.5,52.1667 254.5,50.5C 255.5,50.5 256.5,50.5 257.5,50.5 Z"/></g>
<g><path style="opacity:1" fill="#6f667a" d="M 156.5,50.5 C 157.478,50.811 158.145,51.4777 158.5,52.5C 156.922,53.2978 155.256,53.7978 153.5,54C 154.025,54.6924 154.692,55.1924 155.5,55.5C 156.451,54.6744 157.451,54.5078 158.5,55C 153.497,57.6724 151.664,56.1724 153,50.5C 154.292,49.2089 155.458,49.2089 156.5,50.5 Z"/></g>
<g><path style="opacity:1" fill="#ebeee6" d="M 156.5,50.5 C 156.157,52.2252 155.157,52.7252 153.5,52C 154.244,50.9614 155.244,50.4614 156.5,50.5 Z"/></g>
<g><path style="opacity:1" fill="#927b8a" d="M 159.5,49.5 C 161.428,51.6006 162.095,53.9339 161.5,56.5C 160.056,54.3921 159.39,52.0588 159.5,49.5 Z"/></g>
<g><path style="opacity:1" fill="#797582" d="M 212.5,49.5 C 214.144,49.2865 215.644,49.6198 217,50.5C 217.495,52.4727 217.662,54.4727 217.5,56.5C 215.833,56.5 214.167,56.5 212.5,56.5C 212.5,55.1667 212.5,53.8333 212.5,52.5C 213.675,52.719 214.675,52.3857 215.5,51.5C 214.726,50.2888 213.893,50.2888 213,51.5C 212.536,50.9056 212.369,50.2389 212.5,49.5 Z"/></g>
<g><path style="opacity:1" fill="#5b5b80" d="M 239.5,46.5 C 240.138,48.5732 241.138,50.5732 242.5,52.5C 241.273,53.5904 240.44,54.9238 240,56.5C 239.502,53.1832 239.335,49.8499 239.5,46.5 Z"/></g>
<g><path style="opacity:1" fill="#867b84" d="M 246.5,49.5 C 248.144,49.2865 249.644,49.6198 251,50.5C 251.495,52.4727 251.662,54.4727 251.5,56.5C 249.5,56.5 247.5,56.5 245.5,56.5C 245.5,55.1667 245.5,53.8333 245.5,52.5C 246.978,52.762 248.311,52.4287 249.5,51.5C 248.726,50.2888 247.893,50.2888 247,51.5C 246.536,50.9056 246.369,50.2389 246.5,49.5 Z"/></g>
<g><path style="opacity:1" fill="#766f7e" d="M 145.5,49.5 C 146.461,51.2646 146.795,53.2646 146.5,55.5C 147.5,55.5 148.5,55.5 149.5,55.5C 149.859,53.2341 149.192,51.4007 147.5,50C 150.23,49.0585 151.563,50.0585 151.5,53C 151.257,56.0033 149.59,57.17 146.5,56.5C 145.22,56.6365 144.887,54.3032 145.5,49.5 Z"/></g>
<g><path style="opacity:1" fill="#7c6a69" d="M 193.5,52.5 C 196.166,52.0658 197.333,53.0658 197,55.5C 195.612,56.5536 194.112,56.7203 192.5,56C 195.954,55.3716 196.287,54.2049 193.5,52.5 Z"/></g>
<g><path style="opacity:1" fill="#665a6e" d="M 205.5,55.5 C 204.791,56.404 203.791,56.7373 202.5,56.5C 202.5,55.1667 202.5,53.8333 202.5,52.5C 206.971,52.3276 207.304,51.4943 203.5,50C 204.793,49.51 206.127,49.3433 207.5,49.5C 207.663,51.8568 207.497,54.1902 207,56.5C 206.617,55.944 206.117,55.6107 205.5,55.5 Z"/></g>
<g><path style="opacity:1" fill="#dcede8" d="M 205.5,55.5 C 203.663,55.3605 203.33,54.6939 204.5,53.5C 205.298,53.9569 205.631,54.6236 205.5,55.5 Z"/></g>
<g><path style="opacity:1" fill="#5f74a1" d="M 175.5,53.5 C 176.621,55.0894 176.454,56.7561 175,58.5C 174.36,56.735 174.527,55.0683 175.5,53.5 Z"/></g>
<g><path style="opacity:1" fill="#424248" d="M 135.5,96.5 C 181.835,96.3333 228.168,96.5 274.5,97C 303.268,102.931 319.268,120.431 322.5,149.5C 337.504,149.333 352.504,149.5 367.5,150C 371.163,152.456 371.163,155.122 367.5,158C 352.504,158.5 337.504,158.667 322.5,158.5C 318.816,188.371 302.149,205.871 272.5,211C 227.167,211.667 181.833,211.667 136.5,211C 116.527,206.02 102.36,194.186 94,175.5C 91.8716,170.025 90.705,164.358 90.5,158.5C 75.1522,158.833 59.8189,158.499 44.5,157.5C 42.0925,154.869 42.0925,152.369 44.5,150C 59.8297,149.5 75.163,149.333 90.5,149.5C 92.0809,130.502 100.748,115.669 116.5,105C 122.667,101.579 129,98.7457 135.5,96.5 Z"/></g>
<g><path style="opacity:1" fill="#cacad0" d="M 139.5,102.5 C 183.501,102.333 227.501,102.5 271.5,103C 301.516,109.501 316.516,128.001 316.5,158.5C 312.182,184.318 297.182,199.818 271.5,205C 228.167,205.667 184.833,205.667 141.5,205C 111.028,198.373 96.0283,179.539 96.5,148.5C 101.243,124.093 115.576,108.76 139.5,102.5 Z"/></g>
<g><path style="opacity:1" fill="#74747a" d="M 143.5,119.5 C 185.501,119.333 227.501,119.5 269.5,120C 293.396,129.315 300.896,146.148 292,170.5C 286.478,179.345 278.644,185.179 268.5,188C 225.787,188.978 183.121,188.645 140.5,187C 121.117,178.229 113.951,163.396 119,142.5C 123.508,130.822 131.675,123.155 143.5,119.5 Z"/></g>
<g><path style="opacity:1" fill="#f0f7f7" d="M 145.5,121.5 C 186.168,121.333 226.835,121.5 267.5,122C 286.331,127.5 294.831,140 293,159.5C 289.375,174.126 280.208,182.959 265.5,186C 224.454,186.977 183.454,186.644 142.5,185C 123.852,177.205 116.685,163.372 121,143.5C 125.934,132.391 134.1,125.058 145.5,121.5 Z"/></g>
<g><path style="opacity:1" fill="#343231" d="M 151.5,135.5 C 171.041,136.608 177.541,146.275 171,164.5C 164.442,171.485 156.608,173.319 147.5,170C 138.975,163.753 136.475,155.586 140,145.5C 142.794,140.866 146.627,137.533 151.5,135.5 Z"/></g>
<g><path style="opacity:1" fill="#303137" d="M 202.5,135.5 C 217.628,135.277 224.795,142.61 224,157.5C 218.947,170.857 209.781,174.691 196.5,169C 187.224,160.519 186.224,151.185 193.5,141C 196.263,138.626 199.263,136.792 202.5,135.5 Z"/></g>
<g><path style="opacity:1" fill="#303432" d="M 252.5,135.5 C 270.069,135.888 276.902,144.555 273,161.5C 267.348,171.231 259.181,174.064 248.5,170C 238.719,162.997 236.552,154.164 242,143.5C 244.94,139.963 248.44,137.297 252.5,135.5 Z"/></g>
<g><path style="opacity:1" fill="#875625" d="M 151.5,138.5 C 165.522,137.356 172.022,143.69 171,157.5C 166.421,168.693 158.587,171.86 147.5,167C 137.2,155.87 138.533,146.37 151.5,138.5 Z"/></g>
<g><path style="opacity:1" fill="#1f5ce3" d="M 201.5,138.5 C 219.202,138.577 225.035,146.91 219,163.5C 208.291,172.622 199.291,171.289 192,159.5C 189.525,149.844 192.692,142.844 201.5,138.5 Z"/></g>
<g><path style="opacity:1" fill="#129f43" d="M 251.5,138.5 C 261.146,137.071 267.979,140.738 272,149.5C 272.833,163.333 266.333,169.833 252.5,169C 241.281,163.014 238.781,154.514 245,143.5C 247.326,141.934 249.492,140.268 251.5,138.5 Z"/></g>
<g><path style="opacity:1" fill="#587cac" d="M 142.5,254.5 C 143.008,256.842 144.008,259.009 145.5,261C 144.552,261.483 143.552,261.649 142.5,261.5C 142.5,259.167 142.5,256.833 142.5,254.5 Z"/></g>
<g><path style="opacity:1" fill="#554e5d" d="M 162.5,257.5 C 162.119,256.069 161.119,255.236 159.5,255C 161.259,254.202 162.926,254.369 164.5,255.5C 164.145,256.522 163.478,257.189 162.5,257.5 Z"/></g>
<g><path style="opacity:1" fill="#dca979" d="M 210.5,254.5 C 211.806,257.687 211.806,261.02 210.5,264.5C 210.363,261.447 210.363,258.114 210.5,254.5 Z"/></g>
<g><path style="opacity:1" fill="#4e4a6d" d="M 123.5,254.5 C 125.167,254.5 126.833,254.5 128.5,254.5C 128.663,256.857 128.497,259.19 128,261.5C 126.891,253.715 125.558,253.715 124,261.5C 123.503,259.19 123.337,256.857 123.5,254.5 Z"/></g>
<g><path style="opacity:1" fill="#a19da7" d="M 229.5,254.5 C 233.788,254.558 235.121,256.558 233.5,260.5C 231.958,261.747 230.458,261.747 229,260.5C 228.322,258.402 228.489,256.402 229.5,254.5 Z"/></g>
<g><path style="opacity:1" fill="#7a7e9e" d="M 314.5,254.5 C 316.363,255.967 317.696,257.967 318.5,260.5C 318.167,260.833 317.833,261.167 317.5,261.5C 316.217,259.27 315.217,256.937 314.5,254.5 Z"/></g>
<g><path style="opacity:1" fill="#5984b3" d="M 86.5,254.5 C 87.552,254.351 88.552,254.517 89.5,255C 87.9007,256.786 87.0674,258.953 87,261.5C 86.5034,259.19 86.3367,256.857 86.5,254.5 Z"/></g>
<g><path style="opacity:1" fill="#567ca9" d="M 106.5,260.5 C 106.768,258.901 106.434,257.568 105.5,256.5C 105.082,255.778 104.416,255.278 103.5,255C 104.784,254.316 105.951,254.483 107,255.5C 107.78,257.387 107.613,259.054 106.5,260.5 Z"/></g>
<g><path style="opacity:1" fill="#466b9a" d="M 174.5,254.5 C 178.838,254.622 179.172,254.955 175.5,255.5C 175.662,257.527 175.495,259.527 175,261.5C 174.503,259.19 174.337,256.857 174.5,254.5 Z"/></g>
<g><path style="opacity:1" fill="#634558" d="M 192.5,254.5 C 194.167,254.5 195.833,254.5 197.5,254.5C 197.663,256.857 197.497,259.19 197,261.5C 195.891,253.715 194.558,253.715 193,261.5C 192.503,259.19 192.337,256.857 192.5,254.5 Z"/></g>
<g><path style="opacity:1" fill="#567ca9" d="M 244.5,260.5 C 244.768,258.901 244.434,257.568 243.5,256.5C 243.082,255.778 242.416,255.278 241.5,255C 242.784,254.316 243.951,254.483 245,255.5C 245.78,257.387 245.613,259.054 244.5,260.5 Z"/></g>
<g><path style="opacity:1" fill="#e9f3ed" d="M 248.5,255.5 C 249.649,255.791 250.316,256.624 250.5,258C 250.316,259.376 249.649,260.209 248.5,260.5C 248.5,258.833 248.5,257.167 248.5,255.5 Z"/></g>
<g><path style="opacity:1" fill="#866b71" d="M 248.5,255.5 C 251.004,253.969 252.337,254.803 252.5,258C 252.337,261.197 251.004,262.031 248.5,260.5C 249.649,260.209 250.316,259.376 250.5,258C 250.316,256.624 249.649,255.791 248.5,255.5 Z"/></g>
<g><path style="opacity:1" fill="#6d424a" d="M 256.5,255.5 C 257.209,254.596 258.209,254.263 259.5,254.5C 259.663,256.857 259.497,259.19 259,261.5C 258.998,258.949 258.164,256.949 256.5,255.5 Z"/></g>
<g><path style="opacity:1" fill="#72709d" d="M 261.5,254.5 C 263.273,255.314 263.773,256.648 263,258.5C 262.209,257.255 261.709,255.922 261.5,254.5 Z"/></g>
<g><path style="opacity:1" fill="#c7bec2" d="M 273.5,255.5 C 274.833,257.167 274.833,258.833 273.5,260.5C 272.5,260.5 271.5,260.5 270.5,260.5C 270.5,258.833 270.5,257.167 270.5,255.5C 271.5,255.5 272.5,255.5 273.5,255.5 Z"/></g>
<g><path style="opacity:1" fill="#72709d" d="M 288.5,254.5 C 290.273,255.314 290.773,256.648 290,258.5C 289.209,257.255 288.709,255.922 288.5,254.5 Z"/></g>
<g><path style="opacity:1" fill="#5984b3" d="M 307.5,254.5 C 308.552,254.351 309.552,254.517 310.5,255C 308.901,256.786 308.067,258.953 308,261.5C 307.503,259.19 307.337,256.857 307.5,254.5 Z"/></g>
<g><path style="opacity:1" fill="#5a709e" d="M 326.5,260.5 C 326.768,258.901 326.434,257.568 325.5,256.5C 325.44,255.957 325.107,255.624 324.5,255.5C 323.548,257.045 323.215,258.712 323.5,260.5C 323.167,260.5 322.833,260.5 322.5,260.5C 322.5,258.5 322.5,256.5 322.5,254.5C 327.252,254.341 328.586,256.341 326.5,260.5 Z"/></g>
<g><path style="opacity:1" fill="#eff2e8" d="M 325.5,256.5 C 325.843,258.483 325.176,259.817 323.5,260.5C 323.215,258.712 323.548,257.045 324.5,255.5C 325.107,255.624 325.44,255.957 325.5,256.5 Z"/></g>
<g><path style="opacity:1" fill="#494e70" d="M 109.5,255.5 C 111.039,257.982 112.539,257.982 114,255.5C 114.483,256.448 114.649,257.448 114.5,258.5C 112.549,258.227 111.049,258.893 110,260.5C 109.506,258.866 109.34,257.199 109.5,255.5 Z"/></g>
<g><path style="opacity:1" fill="#635b6f" d="M 134.5,255.5 C 136.048,255.821 136.715,256.821 136.5,258.5C 134.801,258.34 133.134,258.506 131.5,259C 132.649,260.744 133.983,260.911 135.5,259.5C 136.696,259.846 136.696,260.346 135.5,261C 131.333,262.167 129.833,260.667 131,256.5C 132.756,257.985 133.923,257.652 134.5,255.5 Z"/></g>
<g><path style="opacity:1" fill="#635b6f" d="M 170.5,255.5 C 172.048,255.821 172.715,256.821 172.5,258.5C 170.801,258.34 169.134,258.506 167.5,259C 168.649,260.744 169.983,260.911 171.5,259.5C 172.696,259.846 172.696,260.346 171.5,261C 167.333,262.167 165.833,260.667 167,256.5C 168.756,257.985 169.923,257.652 170.5,255.5 Z"/></g>
<g><path style="opacity:1" fill="#494e70" d="M 200.5,255.5 C 202.039,257.982 203.539,257.982 205,255.5C 205.483,256.448 205.649,257.448 205.5,258.5C 203.549,258.227 202.049,258.893 201,260.5C 200.506,258.866 200.34,257.199 200.5,255.5 Z"/></g>
<g><path style="opacity:1" fill="#776c80" d="M 221.5,251.5 C 223.084,253.529 224.417,255.862 225.5,258.5C 225.154,259.696 224.654,259.696 224,258.5C 223.751,259.624 223.251,260.624 222.5,261.5C 221.513,258.232 221.18,254.898 221.5,251.5 Z"/></g>
<g><path style="opacity:1" fill="#756f84" d="M 273.5,255.5 C 272.5,255.5 271.5,255.5 270.5,255.5C 270.5,257.167 270.5,258.833 270.5,260.5C 271.5,260.5 272.5,260.5 273.5,260.5C 272.081,261.451 270.415,261.784 268.5,261.5C 268.18,258.102 268.513,254.768 269.5,251.5C 270.386,252.325 270.719,253.325 270.5,254.5C 271.791,254.263 272.791,254.596 273.5,255.5 Z"/></g>
<g><path style="opacity:1" fill="#5b6e97" d="M 78.5,254.5 C 79.2891,254.783 79.9558,255.283 80.5,256C 79.6198,257.356 79.2865,258.856 79.5,260.5C 82.766,260.567 84.266,258.901 84,255.5C 85.5685,259.917 84.0685,261.917 79.5,261.5C 78.2201,261.637 77.8868,259.303 78.5,254.5 Z"/></g>
<g><path style="opacity:1" fill="#6d575b" d="M 105.5,256.5 C 106.434,257.568 106.768,258.901 106.5,260.5C 105.432,261.434 104.099,261.768 102.5,261.5C 101.356,257.231 101.356,256.898 102.5,260.5C 103.5,260.5 104.5,260.5 105.5,260.5C 105.5,259.167 105.5,257.833 105.5,256.5 Z"/></g>
<g><path style="opacity:1" fill="#575464" d="M 162.5,257.5 C 162.586,258.496 162.252,259.329 161.5,260C 162.5,260.333 163.5,260.667 164.5,261C 159.029,261.771 158.363,260.605 162.5,257.5 Z"/></g>
<g><path style="opacity:1" fill="#57485d" d="M 217.5,260.5 C 216.791,261.404 215.791,261.737 214.5,261.5C 214.5,260.167 214.5,258.833 214.5,257.5C 218.971,257.328 219.304,256.494 215.5,255C 216.793,254.51 218.127,254.343 219.5,254.5C 219.663,256.857 219.497,259.19 219,261.5C 218.617,260.944 218.117,260.611 217.5,260.5 Z"/></g>
<g><path style="opacity:1" fill="#d8ecec" d="M 217.5,260.5 C 215.663,260.361 215.33,259.694 216.5,258.5C 217.298,258.957 217.631,259.624 217.5,260.5 Z"/></g>
<g><path style="opacity:1" fill="#6d575b" d="M 243.5,256.5 C 244.434,257.568 244.768,258.901 244.5,260.5C 243.432,261.434 242.099,261.768 240.5,261.5C 239.356,257.231 239.356,256.898 240.5,260.5C 241.5,260.5 242.5,260.5 243.5,260.5C 243.5,259.167 243.5,257.833 243.5,256.5 Z"/></g>
<g><path style="opacity:1" fill="#635978" d="M 264.5,258.5 C 265.043,258.56 265.376,258.893 265.5,259.5C 264.985,261.225 264.318,262.892 263.5,264.5C 263.167,264.333 262.833,264.167 262.5,264C 263.244,262.185 263.911,260.352 264.5,258.5 Z"/></g>
<g><path style="opacity:1" fill="#635978" d="M 291.5,258.5 C 292.043,258.56 292.376,258.893 292.5,259.5C 291.985,261.225 291.318,262.892 290.5,264.5C 290.167,264.333 289.833,264.167 289.5,264C 290.244,262.185 290.911,260.352 291.5,258.5 Z"/></g>
<g><path style="opacity:1" fill="#5b6e97" d="M 299.5,254.5 C 300.289,254.783 300.956,255.283 301.5,256C 300.62,257.356 300.286,258.856 300.5,260.5C 303.766,260.567 305.266,258.901 305,255.5C 306.568,259.917 305.068,261.917 300.5,261.5C 299.22,261.637 298.887,259.303 299.5,254.5 Z"/></g>
<g><path style="opacity:1" fill="#81665b" d="M 325.5,256.5 C 326.434,257.568 326.768,258.901 326.5,260.5C 325.167,261.833 323.833,261.833 322.5,260.5C 322.833,260.5 323.167,260.5 323.5,260.5C 325.176,259.817 325.843,258.483 325.5,256.5 Z"/></g>
<g><path style="opacity:1" fill="#644b56" d="M 330.5,255.5 C 331.209,254.596 332.209,254.263 333.5,254.5C 334.78,254.363 335.113,256.697 334.5,261.5C 329.748,261.659 328.414,259.659 330.5,255.5 Z"/></g>
<g><path style="opacity:1" fill="#e4ebe0" d="M 330.5,255.5 C 331.5,255.5 332.5,255.5 333.5,255.5C 333.785,257.288 333.452,258.955 332.5,260.5C 330.783,259.332 330.116,257.665 330.5,255.5 Z"/></g>
</svg>
