<?xml version="1.0" encoding="UTF-8"?>
<!DOCTYPE svg PUBLIC "-//W3C//DTD SVG 1.1//EN" "http://www.w3.org/Graphics/SVG/1.1/DTD/svg11.dtd">
<svg xmlns="http://www.w3.org/2000/svg" version="1.1" width="407px" height="297px" style="shape-rendering:geometricPrecision; text-rendering:geometricPrecision; image-rendering:optimizeQuality; fill-rule:evenodd; clip-rule:evenodd" xmlns:xlink="http://www.w3.org/1999/xlink">
<g><path style="opacity:1" fill="#f2f2f1" d="M -0.5,-0.5 C 135.167,-0.5 270.833,-0.5 406.5,-0.5C 406.5,98.5 406.5,197.5 406.5,296.5C 270.833,296.5 135.167,296.5 -0.5,296.5C -0.5,197.5 -0.5,98.5 -0.5,-0.5 Z"/></g>
<g><path style="opacity:1" fill="#2d222c" d="M 168.5,21.5 C 171.798,21.0162 174.464,22.0162 176.5,24.5C 175.758,25.2868 174.925,25.9535 174,26.5C 172.267,24.3985 170.267,24.0652 168,25.5C 167.231,28.0991 167.398,30.5991 168.5,33C 170.701,33.8249 172.534,33.3249 174,31.5C 176.824,32.8333 176.657,34.3333 173.5,36C 165.115,36.5912 162.282,32.7579 165,24.5C 166.145,23.3636 167.312,22.3636 168.5,21.5 Z"/></g>
<g><path style="opacity:1" fill="#201929" d="M 193.5,21.5 C 195.164,22.9488 195.998,24.9488 196,27.5C 197.833,25.6667 199.667,23.8333 201.5,22C 202.5,21.3333 203.5,21.3333 204.5,22C 202.586,23.4133 201.253,25.2466 200.5,27.5C 202.293,30.2511 203.959,33.0844 205.5,36C 204.207,36.49 202.873,36.6567 201.5,36.5C 199.199,27.2021 196.865,27.2021 194.5,36.5C 193.506,31.544 193.173,26.544 193.5,21.5 Z"/></g>
<g><path style="opacity:1" fill="#13111e" d="M 221.5,21.5 C 223.423,25.0293 224.089,29.0293 223.5,33.5C 225.833,33.5 228.167,33.5 230.5,33.5C 230.5,34.5 230.5,35.5 230.5,36.5C 227.5,36.5 224.5,36.5 221.5,36.5C 221.5,31.5 221.5,26.5 221.5,21.5 Z"/></g>
<g><path style="opacity:1" fill="#211a27" d="M 178.5,22.5 C 179.251,21.4265 180.251,21.2599 181.5,22C 182.376,23.586 183.376,25.086 184.5,26.5C 185.5,25.1667 186.5,23.8333 187.5,22.5C 188.5,21.1667 189.5,21.1667 190.5,22.5C 187.09,26.5724 185.09,31.2391 184.5,36.5C 184.102,31.0486 182.102,26.3819 178.5,22.5 Z"/></g>
<g><path style="opacity:1" fill="#211a27" d="M 206.5,22.5 C 207.251,21.4265 208.251,21.2599 209.5,22C 210.376,23.586 211.376,25.086 212.5,26.5C 213.5,25.1667 214.5,23.8333 215.5,22.5C 216.5,21.1667 217.5,21.1667 218.5,22.5C 215.09,26.5724 213.09,31.2391 212.5,36.5C 212.102,31.0486 210.102,26.3819 206.5,22.5 Z"/></g>
<g><path style="opacity:1" fill="#281e2c" d="M 235.5,25.5 C 242.263,25.5472 244.263,28.7139 241.5,35C 236.646,37.7081 233.646,36.3748 232.5,31C 232.685,28.6241 233.685,26.7908 235.5,25.5 Z"/></g>
<g><path style="opacity:1" fill="#e6ddd1" d="M 236.5,27.5 C 240.473,28.0755 241.473,30.2421 239.5,34C 238.216,34.6838 237.049,34.5171 236,33.5C 235.322,31.4024 235.489,29.4024 236.5,27.5 Z"/></g>
<g><path style="opacity:1" fill="#6b7799" d="M 220.5,51.5 C 222.975,51.7467 222.975,52.4134 220.5,53.5C 219.537,53.0302 219.537,52.3635 220.5,51.5 Z"/></g>
<g><path style="opacity:1" fill="#847685" d="M 183.5,54.5 C 189.235,53.8213 190.902,56.1546 188.5,61.5C 187.167,53.5 185.833,53.5 184.5,61.5C 183.526,59.2573 183.192,56.924 183.5,54.5 Z"/></g>
<g><path style="opacity:1" fill="#b1b7c4" d="M 159.5,54.5 C 160.822,54.33 161.989,54.6634 163,55.5C 163.495,57.4727 163.662,59.4727 163.5,61.5C 158.59,61.4236 157.257,59.0902 159.5,54.5 Z"/></g>
<g><path style="opacity:1" fill="#9c99a8" d="M 191.5,54.5 C 195.976,54.8003 197.31,56.9669 195.5,61C 190.999,61.6632 190.665,61.1632 194.5,59.5C 191.205,58.9216 190.205,57.2549 191.5,54.5 Z"/></g>
<g><path style="opacity:1" fill="#685268" d="M 197.5,52.5 C 198.267,53.172 198.934,54.0053 199.5,55C 198.68,57.3332 198.347,59.4999 198.5,61.5C 197.144,58.4292 196.811,55.4292 197.5,52.5 Z"/></g>
<g><path style="opacity:1" fill="#cec6c6" d="M 255.5,55.5 C 256.833,57.1667 256.833,58.8333 255.5,60.5C 254.5,60.5 253.5,60.5 252.5,60.5C 251.916,57.715 252.916,56.0483 255.5,55.5 Z"/></g>
<g><path style="opacity:1" fill="#e9f3ee" d="M 152.5,55.5 C 153.649,55.7911 154.316,56.6244 154.5,58C 154.316,59.3756 153.649,60.2089 152.5,60.5C 152.5,58.8333 152.5,57.1667 152.5,55.5 Z"/></g>
<g><path style="opacity:1" fill="#90787f" d="M 152.5,55.5 C 155.004,53.9692 156.337,54.8025 156.5,58C 156.337,61.1975 155.004,62.0308 152.5,60.5C 153.649,60.2089 154.316,59.3756 154.5,58C 154.316,56.6244 153.649,55.7911 152.5,55.5 Z"/></g>
<g><path style="opacity:1" fill="#52548f" d="M 166.5,55.5 C 165.815,57.4144 165.315,59.4144 165,61.5C 164.333,58.1667 164.333,54.8333 165,51.5C 165.21,53.0581 165.71,54.3915 166.5,55.5 Z"/></g>
<g><path style="opacity:1" fill="#655674" d="M 166.5,55.5 C 167.209,54.596 168.209,54.2627 169.5,54.5C 169.663,56.8568 169.497,59.1902 169,61.5C 168.998,58.9488 168.164,56.9488 166.5,55.5 Z"/></g>
<g><path style="opacity:1" fill="#607398" d="M 255.5,55.5 C 252.916,56.0483 251.916,57.715 252.5,60.5C 253.5,60.5 254.5,60.5 255.5,60.5C 254.432,61.4345 253.099,61.7678 251.5,61.5C 250.887,56.6968 251.22,54.3635 252.5,54.5C 253.791,54.2627 254.791,54.596 255.5,55.5 Z"/></g>
<g><path style="opacity:1" fill="#867b84" d="M 201.5,54.5 C 203.144,54.2865 204.644,54.6198 206,55.5C 206.495,57.4727 206.662,59.4727 206.5,61.5C 204.5,61.5 202.5,61.5 200.5,61.5C 200.5,60.1667 200.5,58.8333 200.5,57.5C 201.978,57.762 203.311,57.4287 204.5,56.5C 203.726,55.2888 202.893,55.2888 202,56.5C 201.536,55.9056 201.369,55.2389 201.5,54.5 Z"/></g>
<g><path style="opacity:1" fill="#685768" d="M 211.5,55.5 C 212.568,54.5655 213.901,54.2322 215.5,54.5C 215.663,56.8568 215.497,59.1902 215,61.5C 214.517,60.552 214.351,59.552 214.5,58.5C 211.282,58.6509 210.949,59.4842 213.5,61C 212.552,61.4828 211.552,61.6495 210.5,61.5C 210.5,60.1667 210.5,58.8333 210.5,57.5C 211.978,57.762 213.311,57.4287 214.5,56.5C 213.675,55.6143 212.675,55.281 211.5,55.5 Z"/></g>
<g><path style="opacity:1" fill="#80788f" d="M 237.5,51.5 C 239.084,53.5286 240.417,55.8619 241.5,58.5C 241.154,59.6956 240.654,59.6956 240,58.5C 239.751,59.624 239.251,60.624 238.5,61.5C 237.513,58.2317 237.18,54.8984 237.5,51.5 Z"/></g>
<g><path style="opacity:1" fill="#6a6676" d="M 244.5,54.5 C 246.144,54.2865 247.644,54.6198 249,55.5C 249.495,57.4727 249.662,59.4727 249.5,61.5C 247.833,61.5 246.167,61.5 244.5,61.5C 244.5,60.1667 244.5,58.8333 244.5,57.5C 245.675,57.719 246.675,57.3857 247.5,56.5C 246.726,55.2888 245.893,55.2888 245,56.5C 244.536,55.9056 244.369,55.2389 244.5,54.5 Z"/></g>
<g><path style="opacity:1" fill="#5a5f7f" d="M 258.5,55.5 C 260.039,57.9818 261.539,57.9818 263,55.5C 263.483,56.448 263.649,57.448 263.5,58.5C 261.549,58.2267 260.049,58.8934 259,60.5C 258.506,58.8659 258.34,57.1992 258.5,55.5 Z"/></g>
<g><path style="opacity:1" fill="#eeede3" d="M 245.5,58.5 C 247.337,58.6395 247.67,59.3061 246.5,60.5C 245.702,60.0431 245.369,59.3764 245.5,58.5 Z"/></g>
<g><path style="opacity:1" fill="#7a819f" d="M 174.5,56.5 C 175.75,59.4225 175.083,62.0891 172.5,64.5C 172.167,64.3333 171.833,64.1667 171.5,64C 172.264,61.9307 172.764,59.764 173,57.5C 174.087,59.9316 174.587,59.5983 174.5,56.5 Z"/></g>
<g><path style="opacity:1" fill="#736c86" d="M 141.5,54.5 C 142.289,54.7828 142.956,55.2828 143.5,56C 142.62,57.3561 142.286,58.8561 142.5,60.5C 143.5,60.5 144.5,60.5 145.5,60.5C 145.34,58.8008 145.506,57.1341 146,55.5C 146.495,57.4727 146.662,59.4727 146.5,61.5C 145.167,61.5 143.833,61.5 142.5,61.5C 141.22,61.6365 140.887,59.3032 141.5,54.5 Z"/></g>
<g><path style="opacity:1" fill="#847c8a" d="M 218.5,54.5 C 219.552,54.3505 220.552,54.5172 221.5,55C 219.44,56.4926 219.107,58.3259 220.5,60.5C 222.923,59.2882 223.923,57.2882 223.5,54.5C 229.235,53.8213 230.902,56.1546 228.5,61.5C 227.167,53.5 225.833,53.5 224.5,61.5C 222.657,61.2448 220.657,61.0781 218.5,61C 217.232,58.8368 217.232,56.6702 218.5,54.5 Z"/></g>
<g><path style="opacity:1" fill="#444449" d="M 97.5,111.5 C 168.167,111.333 238.834,111.5 309.5,112C 331.817,118.454 341.817,133.287 339.5,156.5C 352.171,156.333 364.838,156.5 377.5,157C 380.054,159.398 380.054,161.731 377.5,164C 364.838,164.5 352.171,164.667 339.5,164.5C 341.828,188.389 331.495,203.223 308.5,209C 273.167,209.167 237.833,209.333 202.5,209.5C 165.788,209.654 129.121,209.154 92.5,208C 73.2508,200.024 64.9174,185.524 67.5,164.5C 54.4957,164.667 41.4957,164.5 28.5,164C 27.0183,161.408 27.3517,159.075 29.5,157C 42.1623,156.5 54.8289,156.333 67.5,156.5C 65.3158,133.165 75.3158,118.165 97.5,111.5 Z"/></g>
<g><path style="opacity:1" fill="#ccccd2" d="M 96.5,118.5 C 168.545,118.013 240.545,118.513 312.5,120C 322.333,123.167 328.833,129.667 332,139.5C 332.667,153.167 332.667,166.833 332,180.5C 328.833,191.667 321.667,198.833 310.5,202C 238.833,202.667 167.167,202.667 95.5,202C 84.904,198.404 78.0707,191.238 75,180.5C 74.3333,166.833 74.3333,153.167 75,139.5C 78.7764,128.889 85.9431,121.889 96.5,118.5 Z"/></g>
<g><path style="opacity:1" fill="#74747a" d="M 113.5,132.5 C 173.501,132.333 233.501,132.5 293.5,133C 309.488,139.47 315.655,151.303 312,168.5C 309.695,178.14 303.862,184.64 294.5,188C 233.833,188.667 173.167,188.667 112.5,188C 100.278,182.938 94.2778,173.771 94.5,160.5C 94.4005,146.673 100.734,137.34 113.5,132.5 Z"/></g>
<g><path style="opacity:1" fill="#eff5f6" d="M 115.5,134.5 C 173.834,134.333 232.168,134.5 290.5,135C 306.903,140.292 313.069,151.459 309,168.5C 306.5,177.667 300.667,183.5 291.5,186C 232.833,186.667 174.167,186.667 115.5,186C 102.208,182.196 96.2081,173.362 97.5,159.5C 97.3062,146.695 103.306,138.362 115.5,134.5 Z"/></g>
<g><path style="opacity:1" fill="#35322f" d="M 139.5,142.5 C 156.211,142.04 163.711,150.04 162,166.5C 155.251,178.415 145.751,181.249 133.5,175C 122.597,161.696 124.597,150.863 139.5,142.5 Z"/></g>
<g><path style="opacity:1" fill="#30323a" d="M 198.5,142.5 C 214.667,141.833 222.167,149.5 221,165.5C 215.916,176.791 207.416,180.624 195.5,177C 184.9,169.854 182.733,160.687 189,149.5C 191.79,146.535 194.957,144.202 198.5,142.5 Z"/></g>
<g><path style="opacity:1" fill="#303632" d="M 257.5,142.5 C 272.69,141.529 280.19,148.529 280,163.5C 277.155,174.676 269.989,179.51 258.5,178C 245.935,173.703 241.769,165.203 246,152.5C 248.818,147.839 252.651,144.505 257.5,142.5 Z"/></g>
<g><path style="opacity:1" fill="#875625" d="M 138.5,145.5 C 152.723,143.486 159.89,149.486 160,163.5C 156.556,173.976 149.389,177.809 138.5,175C 129.427,169.109 127.26,161.276 132,151.5C 134.063,149.266 136.229,147.266 138.5,145.5 Z"/></g>
<g><path style="opacity:1" fill="#1f5ce3" d="M 197.5,145.5 C 214.362,144.522 220.862,152.188 217,168.5C 208,179.167 199,179.167 190,168.5C 186.044,158.572 188.544,150.905 197.5,145.5 Z"/></g>
<g><path style="opacity:1" fill="#129f43" d="M 256.5,145.5 C 273.328,144.491 279.828,152.158 276,168.5C 269.395,175.956 261.562,177.456 252.5,173C 243.539,162.228 244.872,153.061 256.5,145.5 Z"/></g>
<g><path style="opacity:1" fill="#765771" d="M 287.5,256.5 C 290.797,256.329 291.131,256.995 288.5,258.5C 287.702,258.043 287.369,257.376 287.5,256.5 Z"/></g>
<g><path style="opacity:1" fill="#986f57" d="M 179.5,256.5 C 179.81,259.713 179.477,262.713 178.5,265.5C 178.923,263.219 178.256,261.552 176.5,260.5C 176.167,260.5 175.833,260.5 175.5,260.5C 176.209,259.596 177.209,259.263 178.5,259.5C 178.263,258.209 178.596,257.209 179.5,256.5 Z"/></g>
<g><path style="opacity:1" fill="#4b6697" d="M 268.5,259.5 C 269.008,261.842 270.008,264.009 271.5,266C 270.552,266.483 269.552,266.649 268.5,266.5C 268.5,264.167 268.5,261.833 268.5,259.5 Z"/></g>
<g><path style="opacity:1" fill="#4a424f" d="M 289.5,261.5 C 288.391,260.71 287.058,260.21 285.5,260C 287.259,259.202 288.926,259.369 290.5,260.5C 290.376,261.107 290.043,261.44 289.5,261.5 Z"/></g>
<g><path style="opacity:1" fill="#c8c0c2" d="M 145.5,260.5 C 146.833,262.167 146.833,263.833 145.5,265.5C 144.5,265.5 143.5,265.5 142.5,265.5C 142.5,263.833 142.5,262.167 142.5,260.5C 143.5,260.5 144.5,260.5 145.5,260.5 Z"/></g>
<g><path style="opacity:1" fill="#a19da7" d="M 217.5,259.5 C 221.788,259.558 223.121,261.558 221.5,265.5C 219.958,266.747 218.458,266.747 217,265.5C 216.322,263.402 216.489,261.402 217.5,259.5 Z"/></g>
<g><path style="opacity:1" fill="#4e4a6d" d="M 249.5,259.5 C 251.167,259.5 252.833,259.5 254.5,259.5C 254.663,261.857 254.497,264.19 254,266.5C 252.891,258.715 251.558,258.715 250,266.5C 249.503,264.19 249.337,261.857 249.5,259.5 Z"/></g>
<g><path style="opacity:1" fill="#a19da7" d="M 279.5,259.5 C 283.788,259.558 285.121,261.558 283.5,265.5C 281.958,266.747 280.458,266.747 279,265.5C 278.322,263.402 278.489,261.402 279.5,259.5 Z"/></g>
<g><path style="opacity:1" fill="#e7f0ed" d="M 99.5,260.5 C 101.256,261.552 101.923,263.219 101.5,265.5C 99.744,264.448 99.0773,262.781 99.5,260.5 Z"/></g>
<g><path style="opacity:1" fill="#9a7577" d="M 99.5,260.5 C 100.542,259.209 101.708,259.209 103,260.5C 103.78,262.387 103.613,264.054 102.5,265.5C 102.167,265.5 101.833,265.5 101.5,265.5C 101.923,263.219 101.256,261.552 99.5,260.5 Z"/></g>
<g><path style="opacity:1" fill="#404283" d="M 124.5,260.5 C 123.815,262.414 123.315,264.414 123,266.5C 122.333,263.167 122.333,259.833 123,256.5C 123.21,258.058 123.71,259.391 124.5,260.5 Z"/></g>
<g><path style="opacity:1" fill="#574461" d="M 124.5,260.5 C 125.209,259.596 126.209,259.263 127.5,259.5C 127.663,261.857 127.497,264.19 127,266.5C 126.998,263.949 126.164,261.949 124.5,260.5 Z"/></g>
<g><path style="opacity:1" fill="#5c4059" d="M 148.5,259.5 C 149.552,259.351 150.552,259.517 151.5,260C 149.901,261.786 149.067,263.953 149,266.5C 148.503,264.19 148.337,261.857 148.5,259.5 Z"/></g>
<g><path style="opacity:1" fill="#e9f3ed" d="M 154.5,260.5 C 155.649,260.791 156.316,261.624 156.5,263C 156.316,264.376 155.649,265.209 154.5,265.5C 154.5,263.833 154.5,262.167 154.5,260.5 Z"/></g>
<g><path style="opacity:1" fill="#866b71" d="M 154.5,260.5 C 157.004,258.969 158.337,259.803 158.5,263C 158.337,266.197 157.004,267.031 154.5,265.5C 155.649,265.209 156.316,264.376 156.5,263C 156.316,261.624 155.649,260.791 154.5,260.5 Z"/></g>
<g><path style="opacity:1" fill="#634558" d="M 189.5,259.5 C 191.167,259.5 192.833,259.5 194.5,259.5C 194.663,261.857 194.497,264.19 194,266.5C 192.891,258.715 191.558,258.715 190,266.5C 189.503,264.19 189.337,261.857 189.5,259.5 Z"/></g>
<g><path style="opacity:1" fill="#567ca9" d="M 209.5,265.5 C 209.768,263.901 209.434,262.568 208.5,261.5C 208.082,260.778 207.416,260.278 206.5,260C 207.784,259.316 208.951,259.483 210,260.5C 210.78,262.387 210.613,264.054 209.5,265.5 Z"/></g>
<g><path style="opacity:1" fill="#4c6b9f" d="M 212.5,259.5 C 213.552,259.351 214.552,259.517 215.5,260C 213.901,261.786 213.067,263.953 213,266.5C 212.503,264.19 212.337,261.857 212.5,259.5 Z"/></g>
<g><path style="opacity:1" fill="#e7f0ed" d="M 229.5,260.5 C 231.256,261.552 231.923,263.219 231.5,265.5C 229.744,264.448 229.077,262.781 229.5,260.5 Z"/></g>
<g><path style="opacity:1" fill="#9a7577" d="M 229.5,260.5 C 230.542,259.209 231.708,259.209 233,260.5C 233.78,262.387 233.613,264.054 232.5,265.5C 232.167,265.5 231.833,265.5 231.5,265.5C 231.923,263.219 231.256,261.552 229.5,260.5 Z"/></g>
<g><path style="opacity:1" fill="#466b9a" d="M 300.5,259.5 C 304.838,259.622 305.172,259.955 301.5,260.5C 301.662,262.527 301.495,264.527 301,266.5C 300.503,264.19 300.337,261.857 300.5,259.5 Z"/></g>
<g><path style="opacity:1" fill="#4d4f67" d="M 134.5,260.5 C 135.404,261.209 135.737,262.209 135.5,263.5C 131.029,263.672 130.696,264.506 134.5,266C 132.934,266.765 131.601,266.598 130.5,265.5C 130.5,264.5 130.5,263.5 130.5,262.5C 132.483,262.843 133.817,262.176 134.5,260.5 Z"/></g>
<g><path style="opacity:1" fill="#495f88" d="M 145.5,260.5 C 144.5,260.5 143.5,260.5 142.5,260.5C 142.5,262.167 142.5,263.833 142.5,265.5C 143.5,265.5 144.5,265.5 145.5,265.5C 144.791,266.404 143.791,266.737 142.5,266.5C 141.22,266.637 140.887,264.303 141.5,259.5C 143.099,259.232 144.432,259.566 145.5,260.5 Z"/></g>
<g><path style="opacity:1" fill="#564757" d="M 167.5,260.5 C 169.039,262.982 170.539,262.982 172,260.5C 172.483,261.448 172.649,262.448 172.5,263.5C 170.549,263.227 169.049,263.893 168,265.5C 167.506,263.866 167.34,262.199 167.5,260.5 Z"/></g>
<g><path style="opacity:1" fill="#494e70" d="M 183.5,265.5 C 182.387,264.054 182.22,262.387 183,260.5C 184.333,263.167 185.667,263.167 187,260.5C 187.483,261.448 187.649,262.448 187.5,263.5C 185.517,263.157 184.183,263.824 183.5,265.5 Z"/></g>
<g><path style="opacity:1" fill="#494e70" d="M 236.5,265.5 C 235.387,264.054 235.22,262.387 236,260.5C 237.333,263.167 238.667,263.167 240,260.5C 240.483,261.448 240.649,262.448 240.5,263.5C 238.517,263.157 237.183,263.824 236.5,265.5 Z"/></g>
<g><path style="opacity:1" fill="#4d4f67" d="M 261.5,260.5 C 262.404,261.209 262.737,262.209 262.5,263.5C 258.029,263.672 257.696,264.506 261.5,266C 259.934,266.765 258.601,266.598 257.5,265.5C 257.5,264.5 257.5,263.5 257.5,262.5C 259.483,262.843 260.817,262.176 261.5,260.5 Z"/></g>
<g><path style="opacity:1" fill="#635b6f" d="M 296.5,260.5 C 298.048,260.821 298.715,261.821 298.5,263.5C 296.801,263.34 295.134,263.506 293.5,264C 294.649,265.744 295.983,265.911 297.5,264.5C 298.696,264.846 298.696,265.346 297.5,266C 293.333,267.167 291.833,265.667 293,261.5C 294.756,262.985 295.923,262.652 296.5,260.5 Z"/></g>
<g><path style="opacity:1" fill="#787286" d="M 116.5,259.5 C 118.429,259.231 120.095,259.731 121.5,261C 120.451,261.492 119.451,261.326 118.5,260.5C 117.548,262.045 117.215,263.712 117.5,265.5C 118.552,265.351 119.552,265.517 120.5,266C 115.57,266.427 114.237,264.26 116.5,259.5 Z"/></g>
<g><path style="opacity:1" fill="#a78376" d="M 134.5,260.5 C 133.817,262.176 132.483,262.843 130.5,262.5C 130.5,263.5 130.5,264.5 130.5,265.5C 129.387,264.054 129.22,262.387 130,260.5C 131.616,259.199 133.116,259.199 134.5,260.5 Z"/></g>
<g><path style="opacity:1" fill="#a78376" d="M 261.5,260.5 C 260.817,262.176 259.483,262.843 257.5,262.5C 257.5,263.5 257.5,264.5 257.5,265.5C 256.387,264.054 256.22,262.387 257,260.5C 258.616,259.199 260.116,259.199 261.5,260.5 Z"/></g>
<g><path style="opacity:1" fill="#6d647b" d="M 179.5,256.5 C 180.479,259.625 180.813,262.958 180.5,266.5C 174.977,267.327 173.31,265.327 175.5,260.5C 175.833,260.5 176.167,260.5 176.5,260.5C 176.077,262.781 176.744,264.448 178.5,265.5C 179.477,262.713 179.81,259.713 179.5,256.5 Z"/></g>
<g><path style="opacity:1" fill="#ecf3eb" d="M 176.5,260.5 C 178.256,261.552 178.923,263.219 178.5,265.5C 176.744,264.448 176.077,262.781 176.5,260.5 Z"/></g>
<g><path style="opacity:1" fill="#657899" d="M 183.5,265.5 C 185.109,265.094 186.443,265.094 187.5,265.5C 186.042,266.782 184.708,266.782 183.5,265.5 Z"/></g>
<g><path style="opacity:1" fill="#6d575b" d="M 208.5,261.5 C 209.434,262.568 209.768,263.901 209.5,265.5C 208.432,266.434 207.099,266.768 205.5,266.5C 204.356,262.231 204.356,261.898 205.5,265.5C 206.5,265.5 207.5,265.5 208.5,265.5C 208.5,264.167 208.5,262.833 208.5,261.5 Z"/></g>
<g><path style="opacity:1" fill="#657899" d="M 236.5,265.5 C 238.109,265.094 239.443,265.094 240.5,265.5C 239.042,266.782 237.708,266.782 236.5,265.5 Z"/></g>
<g><path style="opacity:1" fill="#5c5967" d="M 289.5,261.5 C 289.489,263.017 288.823,264.184 287.5,265C 288.5,265.333 289.5,265.667 290.5,266C 284.334,266.401 284.001,264.901 289.5,261.5 Z"/></g>
<g><path style="opacity:1" fill="#777086" d="M 99.5,260.5 C 99.0773,262.781 99.744,264.448 101.5,265.5C 101.833,265.5 102.167,265.5 102.5,265.5C 101.791,266.404 100.791,266.737 99.5,266.5C 99.719,267.675 99.3857,268.675 98.5,269.5C 97.343,266.216 97.1764,262.882 98,259.5C 98.3826,260.056 98.8826,260.389 99.5,260.5 Z"/></g>
<g><path style="opacity:1" fill="#777086" d="M 229.5,260.5 C 229.077,262.781 229.744,264.448 231.5,265.5C 231.833,265.5 232.167,265.5 232.5,265.5C 231.791,266.404 230.791,266.737 229.5,266.5C 229.719,267.675 229.386,268.675 228.5,269.5C 227.343,266.216 227.176,262.882 228,259.5C 228.383,260.056 228.883,260.389 229.5,260.5 Z"/></g>
</svg>
