<?xml version="1.0" encoding="UTF-8"?>
<!DOCTYPE svg PUBLIC "-//W3C//DTD SVG 1.1//EN" "http://www.w3.org/Graphics/SVG/1.1/DTD/svg11.dtd">
<svg xmlns="http://www.w3.org/2000/svg" version="1.1" width="412px" height="288px" style="shape-rendering:geometricPrecision; text-rendering:geometricPrecision; image-rendering:optimizeQuality; fill-rule:evenodd; clip-rule:evenodd" xmlns:xlink="http://www.w3.org/1999/xlink">
<g><path style="opacity:1" fill="#f2f1f1" d="M -0.5,-0.5 C 136.833,-0.5 274.167,-0.5 411.5,-0.5C 411.5,95.5 411.5,191.5 411.5,287.5C 274.167,287.5 136.833,287.5 -0.5,287.5C -0.5,191.5 -0.5,95.5 -0.5,-0.5 Z"/></g>
<g><path style="opacity:1" fill="#211b27" d="M 137.5,13.5 C 141.281,12.7886 144.281,13.9553 146.5,17C 144.989,18.6149 143.656,18.6149 142.5,17C 139.099,15.8649 137.099,17.0316 136.5,20.5C 137.357,25.6712 139.857,26.6712 144,23.5C 146.878,24.7909 146.712,26.2909 143.5,28C 139.525,29.3794 136.691,28.2127 135,24.5C 133.812,20.2586 134.645,16.5919 137.5,13.5 Z"/></g>
<g><path style="opacity:1" fill="#231e2a" d="M 164.5,13.5 C 167.272,13.22 169.772,13.8866 172,15.5C 172.749,16.635 172.583,17.635 171.5,18.5C 169.724,16.5532 167.724,16.2199 165.5,17.5C 167.535,19.1947 169.868,20.528 172.5,21.5C 174.147,24.4538 173.481,26.6205 170.5,28C 167.653,28.9439 165.153,28.4439 163,26.5C 162.251,25.365 162.417,24.365 163.5,23.5C 165.51,25.1713 167.843,25.838 170.5,25.5C 170.5,24.5 170.5,23.5 170.5,22.5C 163.154,22.7472 161.154,19.7472 164.5,13.5 Z"/></g>
<g><path style="opacity:1" fill="#1e1c2f" d="M 206.5,13.5 C 208.308,14.9179 208.975,16.9179 208.5,19.5C 210.5,19.5 212.5,19.5 214.5,19.5C 214.5,17.5 214.5,15.5 214.5,13.5C 215.5,13.5 216.5,13.5 217.5,13.5C 217.5,18.5 217.5,23.5 217.5,28.5C 216.5,28.5 215.5,28.5 214.5,28.5C 214.5,26.5 214.5,24.5 214.5,22.5C 212.5,22.5 210.5,22.5 208.5,22.5C 208.799,24.604 208.466,26.604 207.5,28.5C 206.506,23.544 206.173,18.544 206.5,13.5 Z"/></g>
<g><path style="opacity:1" fill="#26243b" d="M 245.5,26.5 C 245.277,22.8379 244.277,19.5046 242.5,16.5C 241.044,13.5689 241.877,12.9022 245,14.5C 247.551,26.1963 249.718,25.863 251.5,13.5C 252.675,13.281 253.675,13.6143 254.5,14.5C 252.898,18.8069 251.398,23.1402 250,27.5C 248.184,28.7432 246.684,28.4099 245.5,26.5 Z"/></g>
<g><path style="opacity:1" fill="#2a2336" d="M 255.5,13.5 C 256.675,13.281 257.675,13.6143 258.5,14.5C 261.347,26.4666 263.347,26.1332 264.5,13.5C 265.5,13.5 266.5,13.5 267.5,13.5C 266.455,18.5856 265.122,23.5856 263.5,28.5C 262.167,28.5 260.833,28.5 259.5,28.5C 258.576,23.3935 257.242,18.3935 255.5,13.5 Z"/></g>
<g><path style="opacity:1" fill="#211f30" d="M 275.5,13.5 C 278.833,13.5 282.167,13.5 285.5,13.5C 285.5,14.5 285.5,15.5 285.5,16.5C 283.167,16.5 280.833,16.5 278.5,16.5C 278.5,17.5 278.5,18.5 278.5,19.5C 280.5,19.5 282.5,19.5 284.5,19.5C 284.5,20.5 284.5,21.5 284.5,22.5C 282.5,22.5 280.5,22.5 278.5,22.5C 278.5,24.5 278.5,26.5 278.5,28.5C 277.5,28.5 276.5,28.5 275.5,28.5C 275.5,23.5 275.5,18.5 275.5,13.5 Z"/></g>
<g><path style="opacity:1" fill="#2d1f2a" d="M 222.5,13.5 C 224.722,13.178 226.556,13.8446 228,15.5C 228.667,19.1667 228.667,22.8333 228,26.5C 225.034,29.2652 222.367,28.9318 220,25.5C 218.878,20.9361 219.711,16.9361 222.5,13.5 Z"/></g>
<g><path style="opacity:1" fill="#301d2c" d="M 148.5,13.5 C 151.434,14.2894 153.268,16.2894 154,19.5C 154.983,17.5516 156.15,15.7183 157.5,14C 158.5,13.3333 159.5,13.3333 160.5,14C 156.701,18.0975 155.035,22.9308 155.5,28.5C 154.5,28.5 153.5,28.5 152.5,28.5C 152.664,25.8127 152.497,23.146 152,20.5C 150.807,18.1136 149.64,15.7802 148.5,13.5 Z"/></g>
<g><path style="opacity:1" fill="#301d2c" d="M 175.5,13.5 C 178.434,14.2894 180.268,16.2894 181,19.5C 181.983,17.5516 183.15,15.7183 184.5,14C 185.5,13.3333 186.5,13.3333 187.5,14C 183.701,18.0975 182.035,22.9308 182.5,28.5C 181.5,28.5 180.5,28.5 179.5,28.5C 179.664,25.8127 179.497,23.146 179,20.5C 177.807,18.1136 176.64,15.7802 175.5,13.5 Z"/></g>
<g><path style="opacity:1" fill="#e4ded0" d="M 223.5,15.5 C 224.496,15.4142 225.329,15.7476 226,16.5C 226.667,19.5 226.667,22.5 226,25.5C 225,26.8333 224,26.8333 223,25.5C 222.253,22.0764 222.42,18.7431 223.5,15.5 Z"/></g>
<g><path style="opacity:1" fill="#251d2c" d="M 232.5,13.5 C 234.924,13.1924 237.257,13.5258 239.5,14.5C 237.955,15.4519 236.288,15.7852 234.5,15.5C 234.5,16.5 234.5,17.5 234.5,18.5C 241.188,19.7484 242.188,22.9151 237.5,28C 234.741,28.9774 232.741,28.144 231.5,25.5C 231.833,25.1667 232.167,24.8333 232.5,24.5C 236.755,27.2773 238.422,25.944 237.5,20.5C 235.738,20.3573 234.071,20.6906 232.5,21.5C 231.386,18.8438 231.386,16.1771 232.5,13.5 Z"/></g>
<g><path style="opacity:1" fill="#d2a069" d="M 242.5,16.5 C 244.277,19.5046 245.277,22.8379 245.5,26.5C 243.723,23.4954 242.723,20.1621 242.5,16.5 Z"/></g>
<g><path style="opacity:1" fill="#151224" d="M 268.5,21.5 C 270.167,21.5 271.833,21.5 273.5,21.5C 273.5,22.5 273.5,23.5 273.5,24.5C 271.833,24.5 270.167,24.5 268.5,24.5C 268.5,23.5 268.5,22.5 268.5,21.5 Z"/></g>
<g><path style="opacity:1" fill="#4b4266" d="M 195.5,25.5 C 195.5,23.1667 195.5,20.8333 195.5,18.5C 195.5,16.8333 195.5,15.1667 195.5,13.5C 196.5,13.5 197.5,13.5 198.5,13.5C 197.492,17.5956 196.492,21.5956 195.5,25.5 Z"/></g>
<g><path style="opacity:1" fill="#582f2f" d="M 195.5,18.5 C 195.5,20.8333 195.5,23.1667 195.5,25.5C 195.101,28.9877 194.434,29.1544 193.5,26C 193.867,23.2918 194.534,20.7918 195.5,18.5 Z"/></g>
<g><path style="opacity:1" fill="#7f7d93" d="M 250.5,47.5 C 249.5,47.5 248.5,47.5 247.5,47.5C 247.5,49.1667 247.5,50.8333 247.5,52.5C 248.5,52.5 249.5,52.5 250.5,52.5C 249.081,53.4511 247.415,53.7845 245.5,53.5C 245.18,50.1016 245.513,46.7683 246.5,43.5C 247.386,44.325 247.719,45.325 247.5,46.5C 248.791,46.2627 249.791,46.596 250.5,47.5 Z"/></g>
<g><path style="opacity:1" fill="#8b7e89" d="M 253.5,46.5 C 256.95,45.7564 258.616,47.0897 258.5,50.5C 254.029,50.6724 253.696,51.5057 257.5,53C 252.57,53.427 251.237,51.2604 253.5,46.5 Z"/></g>
<g><path style="opacity:1" fill="#aba5ad" d="M 159.5,46.5 C 163.473,47.0755 164.473,49.2421 162.5,53C 161.216,53.6838 160.049,53.5171 159,52.5C 158.322,50.4024 158.489,48.4024 159.5,46.5 Z"/></g>
<g><path style="opacity:1" fill="#5e5b7c" d="M 186.5,46.5 C 188.167,46.5 189.833,46.5 191.5,46.5C 191.663,48.8568 191.497,51.1902 191,53.5C 189.891,45.7146 188.558,45.7146 187,53.5C 186.503,51.1902 186.337,48.8568 186.5,46.5 Z"/></g>
<g><path style="opacity:1" fill="#6078aa" d="M 221.5,44.5 C 222.043,44.56 222.376,44.8933 222.5,45.5C 221.811,47.444 221.311,49.444 221,51.5C 220.297,49.0709 220.463,46.7375 221.5,44.5 Z"/></g>
<g><path style="opacity:1" fill="#52548f" d="M 167.5,47.5 C 166.815,49.4144 166.315,51.4144 166,53.5C 165.333,50.1667 165.333,46.8333 166,43.5C 166.21,45.0581 166.71,46.3915 167.5,47.5 Z"/></g>
<g><path style="opacity:1" fill="#655674" d="M 167.5,47.5 C 168.209,46.596 169.209,46.2627 170.5,46.5C 170.663,48.8568 170.497,51.1902 170,53.5C 169.998,50.9488 169.164,48.9488 167.5,47.5 Z"/></g>
<g><path style="opacity:1" fill="#665c6e" d="M 203.5,43.5 C 205.527,43.3379 207.527,43.5045 209.5,44C 211.334,48.6748 209.667,50.5081 204.5,49.5C 204.657,50.8734 204.49,52.2068 204,53.5C 203.502,50.1832 203.335,46.8499 203.5,43.5 Z"/></g>
<g><path style="opacity:1" fill="#e4edec" d="M 204.5,44.5 C 205.833,44.5 207.167,44.5 208.5,44.5C 208.5,45.8333 208.5,47.1667 208.5,48.5C 207.167,48.5 205.833,48.5 204.5,48.5C 204.5,47.1667 204.5,45.8333 204.5,44.5 Z"/></g>
<g><path style="opacity:1" fill="#7180a6" d="M 211.5,43.5 C 213.493,47.3302 215.159,50.6636 216.5,53.5C 215.5,53.5 214.5,53.5 213.5,53.5C 213.424,50.0272 212.758,46.6939 211.5,43.5 Z"/></g>
<g><path style="opacity:1" fill="#cac3c8" d="M 250.5,47.5 C 251.833,49.1667 251.833,50.8333 250.5,52.5C 249.5,52.5 248.5,52.5 247.5,52.5C 247.5,50.8333 247.5,49.1667 247.5,47.5C 248.5,47.5 249.5,47.5 250.5,47.5 Z"/></g>
<g><path style="opacity:1" fill="#807681" d="M 173.5,46.5 C 176.5,46.1667 177.833,47.5 177.5,50.5C 175.549,50.2267 174.049,50.8934 173,52.5C 172.322,50.4024 172.489,48.4024 173.5,46.5 Z"/></g>
<g><path style="opacity:1" fill="#555a8c" d="M 179.5,43.5 C 180.234,44.8775 180.901,46.3775 181.5,48C 180.167,49.3333 180.167,50.6667 181.5,52C 181,52.5 180.5,53 180,53.5C 179.502,50.1832 179.335,46.8499 179.5,43.5 Z"/></g>
<g><path style="opacity:1" fill="#867b84" d="M 239.5,46.5 C 241.144,46.2865 242.644,46.6198 244,47.5C 244.495,49.4727 244.662,51.4727 244.5,53.5C 242.5,53.5 240.5,53.5 238.5,53.5C 238.5,52.1667 238.5,50.8333 238.5,49.5C 239.978,49.762 241.311,49.4287 242.5,48.5C 241.726,47.2888 240.893,47.2888 240,48.5C 239.536,47.9056 239.369,47.2389 239.5,46.5 Z"/></g>
<g><path style="opacity:1" fill="#685770" d="M 232.5,43.5 C 233.138,45.5732 234.138,47.5732 235.5,49.5C 234.273,50.5904 233.44,51.9238 233,53.5C 232.502,50.1832 232.335,46.8499 232.5,43.5 Z"/></g>
<g><path style="opacity:1" fill="#7a819f" d="M 196.5,48.5 C 197.75,51.4225 197.083,54.0891 194.5,56.5C 194.167,56.3333 193.833,56.1667 193.5,56C 194.264,53.9307 194.764,51.764 195,49.5C 196.087,51.9316 196.587,51.5983 196.5,48.5 Z"/></g>
<g><path style="opacity:1" fill="#424248" d="M 196.5,59.5 C 242.437,56.8759 275.271,76.2092 295,117.5C 308.466,160.486 297.966,196.32 263.5,225C 225.45,249.251 188.116,248.251 151.5,222C 120.226,193.073 111.059,158.24 124,117.5C 138.107,85.3892 162.274,66.0559 196.5,59.5 Z"/></g>
<g><path style="opacity:1" fill="#ccccd2" d="M 195.5,66.5 C 239.36,62.9184 270.527,80.9184 289,120.5C 301.636,162.925 290.136,197.092 254.5,223C 209.217,245.876 170.717,237.709 139,198.5C 115.443,157.012 120.61,119.512 154.5,86C 166.699,76.2322 180.365,69.7322 195.5,66.5 Z"/></g>
<g><path style="opacity:1" fill="#7a7a80" d="M 197.5,84.5 C 236.947,81.7915 262.78,99.1249 275,136.5C 280.044,170.913 267.211,196.08 236.5,212C 200.561,224.465 172.061,214.965 151,183.5C 134.691,147.234 142.524,117.401 174.5,94C 181.819,89.6636 189.486,86.4969 197.5,84.5 Z"/></g>
<g><path style="opacity:1" fill="#f0f7f7" d="M 260.5,112.5 C 245.992,104.672 234.826,108.005 227,122.5C 223.873,139.025 230.54,148.692 247,151.5C 261.869,149.797 269.036,141.464 268.5,126.5C 277.033,148.694 274.533,169.694 261,189.5C 242.963,210.847 220.129,218.68 192.5,213C 158.439,200.401 142.939,175.901 146,139.5C 146.751,134.789 148.251,130.456 150.5,126.5C 150.647,143.816 159.314,151.982 176.5,151C 189.921,146.115 195.088,136.615 192,122.5C 184.854,109.174 174.354,105.507 160.5,111.5C 159.475,111.103 159.308,110.437 160,109.5C 188.4,81.6934 218.9,79.1934 251.5,102C 255.085,105.078 258.085,108.578 260.5,112.5 Z"/></g>
<g><path style="opacity:1" fill="#322f2e" d="M 150.5,126.5 C 152.077,120.35 155.411,115.35 160.5,111.5C 174.354,105.507 184.854,109.174 192,122.5C 195.088,136.615 189.921,146.115 176.5,151C 159.314,151.982 150.647,143.816 150.5,126.5 Z"/></g>
<g><path style="opacity:1" fill="#2d322f" d="M 260.5,112.5 C 264.491,116.472 267.157,121.138 268.5,126.5C 269.036,141.464 261.869,149.797 247,151.5C 230.54,148.692 223.873,139.025 227,122.5C 234.826,108.005 245.992,104.672 260.5,112.5 Z"/></g>
<g><path style="opacity:1" fill="#875625" d="M 165.5,111.5 C 184.496,110.322 192.33,118.989 189,137.5C 183.88,146.772 176.047,150.272 165.5,148C 154.715,142.6 150.882,134.1 154,122.5C 156.495,117.353 160.329,113.686 165.5,111.5 Z"/></g>
<g><path style="opacity:1" fill="#129f43" d="M 240.5,111.5 C 255.044,109.417 263.711,115.417 266.5,129.5C 262.646,147.427 252.313,152.594 235.5,145C 227.628,137.09 226.462,128.257 232,118.5C 234.628,115.79 237.461,113.456 240.5,111.5 Z"/></g>
<g><path style="opacity:1" fill="#2e2f34" d="M 203.5,150.5 C 219.553,149.07 228.553,156.237 230.5,172C 229.32,185.346 221.987,192.513 208.5,193.5C 191.614,189.744 185.447,179.411 190,162.5C 193.454,157.206 197.954,153.206 203.5,150.5 Z"/></g>
<g><path style="opacity:1" fill="#1f5ce3" d="M 202.5,153.5 C 223.359,152.179 231.193,161.512 226,181.5C 220.47,189.236 212.97,192.07 203.5,190C 190.745,183.31 187.578,173.477 194,160.5C 196.628,157.79 199.461,155.456 202.5,153.5 Z"/></g>
<g><path style="opacity:1" fill="#4f648a" d="M 176.5,252.5 C 175.5,252.5 174.5,252.5 173.5,252.5C 173.5,254.167 173.5,255.833 173.5,257.5C 174.5,257.5 175.5,257.5 176.5,257.5C 175.432,258.434 174.099,258.768 172.5,258.5C 171.887,253.697 172.22,251.363 173.5,251.5C 174.791,251.263 175.791,251.596 176.5,252.5 Z"/></g>
<g><path style="opacity:1" fill="#4a424f" d="M 190.5,253.5 C 189.391,252.71 188.058,252.21 186.5,252C 188.259,251.202 189.926,251.369 191.5,252.5C 191.376,253.107 191.043,253.44 190.5,253.5 Z"/></g>
<g><path style="opacity:1" fill="#7c6977" d="M 193.5,251.5 C 199.235,250.821 200.902,253.155 198.5,258.5C 197.167,250.5 195.833,250.5 194.5,258.5C 193.526,256.257 193.192,253.924 193.5,251.5 Z"/></g>
<g><path style="opacity:1" fill="#435386" d="M 104.5,249.5 C 105.267,250.172 105.934,251.005 106.5,252C 105.68,254.333 105.347,256.5 105.5,258.5C 104.144,255.429 103.811,252.429 104.5,249.5 Z"/></g>
<g><path style="opacity:1" fill="#abaebc" d="M 126.5,251.5 C 130.473,252.075 131.473,254.242 129.5,258C 128.216,258.684 127.049,258.517 126,257.5C 125.322,255.402 125.489,253.402 126.5,251.5 Z"/></g>
<g><path style="opacity:1" fill="#c8c0c2" d="M 153.5,252.5 C 154.833,254.167 154.833,255.833 153.5,257.5C 152.5,257.5 151.5,257.5 150.5,257.5C 150.5,255.833 150.5,254.167 150.5,252.5C 151.5,252.5 152.5,252.5 153.5,252.5 Z"/></g>
<g><path style="opacity:1" fill="#c9c0c2" d="M 176.5,252.5 C 177.833,254.167 177.833,255.833 176.5,257.5C 175.5,257.5 174.5,257.5 173.5,257.5C 173.5,255.833 173.5,254.167 173.5,252.5C 174.5,252.5 175.5,252.5 176.5,252.5 Z"/></g>
<g><path style="opacity:1" fill="#7a7e9e" d="M 254.5,251.5 C 256.363,252.967 257.696,254.967 258.5,257.5C 258.167,257.833 257.833,258.167 257.5,258.5C 256.217,256.27 255.217,253.937 254.5,251.5 Z"/></g>
<g><path style="opacity:1" fill="#a39ba4" d="M 296.5,251.5 C 300.473,252.075 301.473,254.242 299.5,258C 298.216,258.684 297.049,258.517 296,257.5C 295.322,255.402 295.489,253.402 296.5,251.5 Z"/></g>
<g><path style="opacity:1" fill="#454174" d="M 156.5,251.5 C 157.552,251.351 158.552,251.517 159.5,252C 157.901,253.786 157.067,255.953 157,258.5C 156.503,256.19 156.337,253.857 156.5,251.5 Z"/></g>
<g><path style="opacity:1" fill="#696e8c" d="M 161.5,251.5 C 166.328,251.385 167.661,253.552 165.5,258C 164.207,258.49 162.873,258.657 161.5,258.5C 161.5,256.167 161.5,253.833 161.5,251.5 Z"/></g>
<g><path style="opacity:1" fill="#eff2e8" d="M 162.5,252.5 C 163.649,252.791 164.316,253.624 164.5,255C 164.167,255.833 163.833,256.667 163.5,257.5C 162.548,255.955 162.215,254.288 162.5,252.5 Z"/></g>
<g><path style="opacity:1" fill="#696e8c" d="M 220.5,251.5 C 225.328,251.385 226.661,253.552 224.5,258C 223.207,258.49 221.873,258.657 220.5,258.5C 220.5,256.167 220.5,253.833 220.5,251.5 Z"/></g>
<g><path style="opacity:1" fill="#eff2e8" d="M 221.5,252.5 C 222.649,252.791 223.316,253.624 223.5,255C 223.167,255.833 222.833,256.667 222.5,257.5C 221.548,255.955 221.215,254.288 221.5,252.5 Z"/></g>
<g><path style="opacity:1" fill="#404283" d="M 229.5,252.5 C 228.815,254.414 228.315,256.414 228,258.5C 227.333,255.167 227.333,251.833 228,248.5C 228.21,250.058 228.71,251.391 229.5,252.5 Z"/></g>
<g><path style="opacity:1" fill="#574461" d="M 229.5,252.5 C 230.209,251.596 231.209,251.263 232.5,251.5C 232.663,253.857 232.497,256.19 232,258.5C 231.998,255.949 231.164,253.949 229.5,252.5 Z"/></g>
<g><path style="opacity:1" fill="#e7f0ed" d="M 274.5,252.5 C 276.256,253.552 276.923,255.219 276.5,257.5C 274.744,256.448 274.077,254.781 274.5,252.5 Z"/></g>
<g><path style="opacity:1" fill="#9a7577" d="M 274.5,252.5 C 275.542,251.209 276.708,251.209 278,252.5C 278.78,254.387 278.613,256.054 277.5,257.5C 277.167,257.5 276.833,257.5 276.5,257.5C 276.923,255.219 276.256,253.552 274.5,252.5 Z"/></g>
<g><path style="opacity:1" fill="#454174" d="M 280.5,251.5 C 281.552,251.351 282.552,251.517 283.5,252C 281.901,253.786 281.067,255.953 281,258.5C 280.503,256.19 280.337,253.857 280.5,251.5 Z"/></g>
<g><path style="opacity:1" fill="#776c80" d="M 131.5,248.5 C 133.084,250.529 134.417,252.862 135.5,255.5C 135.154,256.696 134.654,256.696 134,255.5C 133.751,256.624 133.251,257.624 132.5,258.5C 131.513,255.232 131.18,251.898 131.5,248.5 Z"/></g>
<g><path style="opacity:1" fill="#495f88" d="M 153.5,252.5 C 152.5,252.5 151.5,252.5 150.5,252.5C 150.5,254.167 150.5,255.833 150.5,257.5C 151.5,257.5 152.5,257.5 153.5,257.5C 152.791,258.404 151.791,258.737 150.5,258.5C 149.22,258.637 148.887,256.303 149.5,251.5C 151.099,251.232 152.432,251.566 153.5,252.5 Z"/></g>
<g><path style="opacity:1" fill="#635b6f" d="M 183.5,252.5 C 185.048,252.821 185.715,253.821 185.5,255.5C 183.801,255.34 182.134,255.506 180.5,256C 181.649,257.744 182.983,257.911 184.5,256.5C 185.696,256.846 185.696,257.346 184.5,258C 180.333,259.167 178.833,257.667 180,253.5C 181.756,254.985 182.923,254.652 183.5,252.5 Z"/></g>
<g><path style="opacity:1" fill="#564757" d="M 201.5,252.5 C 203.039,254.982 204.539,254.982 206,252.5C 206.483,253.448 206.649,254.448 206.5,255.5C 204.549,255.227 203.049,255.893 202,257.5C 201.506,255.866 201.34,254.199 201.5,252.5 Z"/></g>
<g><path style="opacity:1" fill="#807073" d="M 243.5,252.5 C 244.542,251.209 245.708,251.209 247,252.5C 247.743,254.441 247.576,256.274 246.5,258C 245.5,258.667 244.5,258.667 243.5,258C 246.139,255.992 246.139,254.159 243.5,252.5 Z"/></g>
<g><path style="opacity:1" fill="#8c7372" d="M 262.5,251.5 C 265.95,250.756 267.616,252.09 267.5,255.5C 263.029,255.672 262.696,256.506 266.5,258C 261.57,258.427 260.237,256.26 262.5,251.5 Z"/></g>
<g><path style="opacity:1" fill="#7792c0" d="M 138.5,251.5 C 139.793,252.842 140.626,254.509 141,256.5C 141.471,254.754 142.138,253.087 143,251.5C 141.847,263.427 140.347,263.427 138.5,251.5 Z"/></g>
<g><path style="opacity:1" fill="#6c8ebb" d="M 313.5,253.5 C 314.709,255.435 314.542,257.435 313,259.5C 311.813,257.956 311.48,256.289 312,254.5C 313.087,256.932 313.587,256.598 313.5,253.5 Z"/></g>
<g><path style="opacity:1" fill="#6b606e" d="M 114.5,251.5 C 115.461,253.265 115.795,255.265 115.5,257.5C 116.5,257.5 117.5,257.5 118.5,257.5C 118.859,255.234 118.192,253.401 116.5,252C 119.23,251.058 120.563,252.058 120.5,255C 120.257,258.003 118.59,259.17 115.5,258.5C 114.22,258.637 113.887,256.303 114.5,251.5 Z"/></g>
<g><path style="opacity:1" fill="#5c5967" d="M 190.5,253.5 C 190.489,255.017 189.823,256.184 188.5,257C 189.5,257.333 190.5,257.667 191.5,258C 185.334,258.401 185.001,256.901 190.5,253.5 Z"/></g>
<g><path style="opacity:1" fill="#5b6e97" d="M 212.5,251.5 C 213.289,251.783 213.956,252.283 214.5,253C 213.62,254.356 213.286,255.856 213.5,257.5C 216.766,257.567 218.266,255.901 218,252.5C 219.568,256.917 218.068,258.917 213.5,258.5C 212.22,258.637 211.887,256.303 212.5,251.5 Z"/></g>
<g><path style="opacity:1" fill="#706778" d="M 306.5,248.5 C 308.402,251.337 309.069,254.671 308.5,258.5C 306.833,258.5 305.167,258.5 303.5,258.5C 303.5,256.167 303.5,253.833 303.5,251.5C 304.5,251.5 305.5,251.5 306.5,251.5C 306.5,250.5 306.5,249.5 306.5,248.5 Z"/></g>
<g><path style="opacity:1" fill="#ecf3eb" d="M 304.5,252.5 C 305.649,252.791 306.316,253.624 306.5,255C 306.167,255.833 305.833,256.667 305.5,257.5C 304.548,255.955 304.215,254.288 304.5,252.5 Z"/></g>
<g><path style="opacity:1" fill="#777086" d="M 274.5,252.5 C 274.077,254.781 274.744,256.448 276.5,257.5C 276.833,257.5 277.167,257.5 277.5,257.5C 276.791,258.404 275.791,258.737 274.5,258.5C 274.719,259.675 274.386,260.675 273.5,261.5C 272.343,258.216 272.176,254.882 273,251.5C 273.383,252.056 273.883,252.389 274.5,252.5 Z"/></g>
<g><path style="opacity:1" fill="#506696" d="M 110.5,255.5 C 111.621,257.089 111.454,258.756 110,260.5C 109.36,258.735 109.527,257.068 110.5,255.5 Z"/></g>
<g><path style="opacity:1" fill="#506696" d="M 237.5,255.5 C 238.621,257.089 238.454,258.756 237,260.5C 236.36,258.735 236.527,257.068 237.5,255.5 Z"/></g>
</svg>
