<?xml version="1.0" encoding="UTF-8"?>
<!DOCTYPE svg PUBLIC "-//W3C//DTD SVG 1.1//EN" "http://www.w3.org/Graphics/SVG/1.1/DTD/svg11.dtd">
<svg xmlns="http://www.w3.org/2000/svg" version="1.1" width="413px" height="302px" style="shape-rendering:geometricPrecision; text-rendering:geometricPrecision; image-rendering:optimizeQuality; fill-rule:evenodd; clip-rule:evenodd" xmlns:xlink="http://www.w3.org/1999/xlink">
<g><path style="opacity:1" fill="#f1f1f1" d="M -0.5,-0.5 C 137.167,-0.5 274.833,-0.5 412.5,-0.5C 412.5,100.167 412.5,200.833 412.5,301.5C 274.833,301.5 137.167,301.5 -0.5,301.5C -0.5,200.833 -0.5,100.167 -0.5,-0.5 Z"/></g>
<g><path style="opacity:1" fill="#231825" d="M 166.5,20.5 C 167.5,20.5 168.5,20.5 169.5,20.5C 169.5,22.5 169.5,24.5 169.5,26.5C 171.5,26.5 173.5,26.5 175.5,26.5C 175.201,24.396 175.534,22.396 176.5,20.5C 177.833,25.5 177.833,30.5 176.5,35.5C 175.534,33.604 175.201,31.604 175.5,29.5C 173.5,29.5 171.5,29.5 169.5,29.5C 169.5,31.5 169.5,33.5 169.5,35.5C 168.5,35.5 167.5,35.5 166.5,35.5C 166.5,30.5 166.5,25.5 166.5,20.5 Z"/></g>
<g><path style="opacity:1" fill="#3a2836" d="M 182.5,20.5 C 185.044,20.1043 187.211,20.771 189,22.5C 189.667,26.1667 189.667,29.8333 189,33.5C 186.413,36.0341 183.747,36.0341 181,33.5C 179.978,28.8711 180.478,24.5377 182.5,20.5 Z"/></g>
<g><path style="opacity:1" fill="#261b2a" d="M 203.5,20.5 C 207.584,20.0431 211.417,20.7098 215,22.5C 216.042,25.8039 214.875,27.9705 211.5,29C 213.414,30.4133 214.747,32.2466 215.5,34.5C 215,34.8333 214.5,35.1667 214,35.5C 212.146,33.9772 210.646,32.1438 209.5,30C 208.552,29.5172 207.552,29.3505 206.5,29.5C 206.5,31.5 206.5,33.5 206.5,35.5C 205.5,35.5 204.5,35.5 203.5,35.5C 203.5,30.5 203.5,25.5 203.5,20.5 Z"/></g>
<g><path style="opacity:1" fill="#1a1824" d="M 218.5,20.5 C 221.518,20.3354 224.518,20.502 227.5,21C 230.399,24.1558 230.065,26.8225 226.5,29C 228.081,30.828 229.415,32.828 230.5,35C 229.5,35.6667 228.5,35.6667 227.5,35C 226.149,31.805 223.815,29.9717 220.5,29.5C 220.799,31.604 220.466,33.604 219.5,35.5C 218.506,30.544 218.173,25.544 218.5,20.5 Z"/></g>
<g><path style="opacity:1" fill="#211f30" d="M 239.5,20.5 C 242.833,20.5 246.167,20.5 249.5,20.5C 249.5,21.5 249.5,22.5 249.5,23.5C 247.167,23.5 244.833,23.5 242.5,23.5C 242.5,24.5 242.5,25.5 242.5,26.5C 244.5,26.5 246.5,26.5 248.5,26.5C 248.5,27.5 248.5,28.5 248.5,29.5C 246.5,29.5 244.5,29.5 242.5,29.5C 242.5,31.5 242.5,33.5 242.5,35.5C 241.5,35.5 240.5,35.5 239.5,35.5C 239.5,30.5 239.5,25.5 239.5,20.5 Z"/></g>
<g><path style="opacity:1" fill="#251e2c" d="M 193.5,20.5 C 195.924,20.1924 198.257,20.5258 200.5,21.5C 198.955,22.4519 197.288,22.7852 195.5,22.5C 195.5,23.5 195.5,24.5 195.5,25.5C 202.188,26.7484 203.188,29.9151 198.5,35C 196.833,35.6667 195.167,35.6667 193.5,35C 192.378,31.0551 193.378,30.5551 196.5,33.5C 198.283,31.9775 198.949,29.9775 198.5,27.5C 196.738,27.3573 195.071,27.6906 193.5,28.5C 192.795,25.911 192.795,23.2443 193.5,20.5 Z"/></g>
<g><path style="opacity:1" fill="#e7eae4" d="M 183.5,22.5 C 184.5,22.5 185.5,22.5 186.5,22.5C 186.5,26.1667 186.5,29.8333 186.5,33.5C 185.5,33.5 184.5,33.5 183.5,33.5C 183.5,29.8333 183.5,26.1667 183.5,22.5 Z"/></g>
<g><path style="opacity:1" fill="#ebe4d9" d="M 206.5,23.5 C 208.5,23.5 210.5,23.5 212.5,23.5C 212.5,24.5 212.5,25.5 212.5,26.5C 210.5,26.5 208.5,26.5 206.5,26.5C 206.5,25.5 206.5,24.5 206.5,23.5 Z"/></g>
<g><path style="opacity:1" fill="#e0e3e7" d="M 220.5,23.5 C 222.5,23.5 224.5,23.5 226.5,23.5C 226.5,24.5 226.5,25.5 226.5,26.5C 224.5,26.5 222.5,26.5 220.5,26.5C 220.5,25.5 220.5,24.5 220.5,23.5 Z"/></g>
<g><path style="opacity:1" fill="#151224" d="M 232.5,28.5 C 234.167,28.5 235.833,28.5 237.5,28.5C 237.5,29.5 237.5,30.5 237.5,31.5C 235.833,31.5 234.167,31.5 232.5,31.5C 232.5,30.5 232.5,29.5 232.5,28.5 Z"/></g>
<g><path style="opacity:1" fill="#7f7d93" d="M 220.5,54.5 C 219.5,54.5 218.5,54.5 217.5,54.5C 217.5,56.1667 217.5,57.8333 217.5,59.5C 218.5,59.5 219.5,59.5 220.5,59.5C 219.081,60.4511 217.415,60.7845 215.5,60.5C 215.18,57.1016 215.513,53.7683 216.5,50.5C 217.386,51.325 217.719,52.325 217.5,53.5C 218.791,53.2627 219.791,53.596 220.5,54.5 Z"/></g>
<g><path style="opacity:1" fill="#8b7e89" d="M 209.5,53.5 C 212.95,52.7564 214.616,54.0897 214.5,57.5C 210.029,57.6724 209.696,58.5057 213.5,60C 208.57,60.427 207.237,58.2604 209.5,53.5 Z"/></g>
<g><path style="opacity:1" fill="#847685" d="M 222.5,53.5 C 228.235,52.8213 229.902,55.1546 227.5,60.5C 226.167,52.5 224.833,52.5 223.5,60.5C 222.526,58.2573 222.192,55.924 222.5,53.5 Z"/></g>
<g><path style="opacity:1" fill="#cec6c6" d="M 257.5,54.5 C 258.833,56.1667 258.833,57.8333 257.5,59.5C 256.5,59.5 255.5,59.5 254.5,59.5C 253.916,56.715 254.916,55.0483 257.5,54.5 Z"/></g>
<g><path style="opacity:1" fill="#705661" d="M 148.5,54.5 C 149.568,53.5655 150.901,53.2322 152.5,53.5C 152.665,56.5184 152.498,59.5184 152,62.5C 151.015,61.1859 149.848,60.1859 148.5,59.5C 149.5,59.5 150.5,59.5 151.5,59.5C 151.5,57.8333 151.5,56.1667 151.5,54.5C 150.5,54.5 149.5,54.5 148.5,54.5 Z"/></g>
<g><path style="opacity:1" fill="#54568c" d="M 163.5,54.5 C 162.815,56.4144 162.315,58.4144 162,60.5C 161.333,58.1667 161.333,55.8333 162,53.5C 162.383,54.056 162.883,54.3893 163.5,54.5 Z"/></g>
<g><path style="opacity:1" fill="#ab8883" d="M 163.5,54.5 C 164.348,53.375 165.348,53.375 166.5,54.5C 166.799,56.604 166.466,58.604 165.5,60.5C 164.831,58.3691 164.165,56.3691 163.5,54.5 Z"/></g>
<g><path style="opacity:1" fill="#b68d67" d="M 166.5,54.5 C 167.209,53.596 168.209,53.2627 169.5,53.5C 169.663,55.8568 169.497,58.1902 169,60.5C 168.998,57.9488 168.164,55.9488 166.5,54.5 Z"/></g>
<g><path style="opacity:1" fill="#747a99" d="M 172.5,53.5 C 177.328,53.3852 178.661,55.5519 176.5,60C 175.207,60.49 173.873,60.6567 172.5,60.5C 172.5,58.1667 172.5,55.8333 172.5,53.5 Z"/></g>
<g><path style="opacity:1" fill="#edf3e9" d="M 173.5,54.5 C 174.649,54.7911 175.316,55.6244 175.5,57C 175.167,57.8333 174.833,58.6667 174.5,59.5C 173.548,57.9547 173.215,56.288 173.5,54.5 Z"/></g>
<g><path style="opacity:1" fill="#7277a6" d="M 178.5,53.5 C 180.273,54.3143 180.773,55.6476 180,57.5C 179.209,56.255 178.709,54.9217 178.5,53.5 Z"/></g>
<g><path style="opacity:1" fill="#747a99" d="M 195.5,53.5 C 200.328,53.3852 201.661,55.5519 199.5,60C 198.207,60.49 196.873,60.6567 195.5,60.5C 195.5,58.1667 195.5,55.8333 195.5,53.5 Z"/></g>
<g><path style="opacity:1" fill="#edf3e9" d="M 196.5,54.5 C 197.649,54.7911 198.316,55.6244 198.5,57C 198.167,57.8333 197.833,58.6667 197.5,59.5C 196.548,57.9547 196.215,56.288 196.5,54.5 Z"/></g>
<g><path style="opacity:1" fill="#6991c3" d="M 202.5,50.5 C 203.404,51.209 203.737,52.209 203.5,53.5C 207.5,53.8333 207.5,54.1667 203.5,54.5C 203.662,56.5273 203.495,58.5273 203,60.5C 202.502,57.1832 202.335,53.8499 202.5,50.5 Z"/></g>
<g><path style="opacity:1" fill="#cac3c8" d="M 220.5,54.5 C 221.833,56.1667 221.833,57.8333 220.5,59.5C 219.5,59.5 218.5,59.5 217.5,59.5C 217.5,57.8333 217.5,56.1667 217.5,54.5C 218.5,54.5 219.5,54.5 220.5,54.5 Z"/></g>
<g><path style="opacity:1" fill="#607398" d="M 257.5,54.5 C 254.916,55.0483 253.916,56.715 254.5,59.5C 255.5,59.5 256.5,59.5 257.5,59.5C 256.432,60.4345 255.099,60.7678 253.5,60.5C 252.887,55.6968 253.22,53.3635 254.5,53.5C 255.791,53.2627 256.791,53.596 257.5,54.5 Z"/></g>
<g><path style="opacity:1" fill="#80788f" d="M 239.5,50.5 C 241.084,52.5286 242.417,54.8619 243.5,57.5C 243.154,58.6956 242.654,58.6956 242,57.5C 241.751,58.624 241.251,59.624 240.5,60.5C 239.513,57.2317 239.18,53.8984 239.5,50.5 Z"/></g>
<g><path style="opacity:1" fill="#797582" d="M 246.5,53.5 C 248.144,53.2865 249.644,53.6198 251,54.5C 251.495,56.4727 251.662,58.4727 251.5,60.5C 249.833,60.5 248.167,60.5 246.5,60.5C 246.5,59.1667 246.5,57.8333 246.5,56.5C 247.675,56.719 248.675,56.3857 249.5,55.5C 248.726,54.2888 247.893,54.2888 247,55.5C 246.536,54.9056 246.369,54.2389 246.5,53.5 Z"/></g>
<g><path style="opacity:1" fill="#5a5f7f" d="M 260.5,54.5 C 262.039,56.9818 263.539,56.9818 265,54.5C 265.483,55.448 265.649,56.448 265.5,57.5C 263.549,57.2267 262.049,57.8934 261,59.5C 260.506,57.8659 260.34,56.1992 260.5,54.5 Z"/></g>
<g><path style="opacity:1" fill="#bdc6cc" d="M 148.5,54.5 C 149.5,54.5 150.5,54.5 151.5,54.5C 151.5,56.1667 151.5,57.8333 151.5,59.5C 150.5,59.5 149.5,59.5 148.5,59.5C 147.167,57.8333 147.167,56.1667 148.5,54.5 Z"/></g>
<g><path style="opacity:1" fill="#685c72" d="M 154.5,53.5 C 155.461,55.2646 155.795,57.2646 155.5,59.5C 156.5,59.5 157.5,59.5 158.5,59.5C 158.338,57.4727 158.505,55.4727 159,53.5C 159.497,55.8098 159.663,58.1432 159.5,60.5C 157.833,60.5 156.167,60.5 154.5,60.5C 154.5,58.1667 154.5,55.8333 154.5,53.5 Z"/></g>
<g><path style="opacity:1" fill="#6b6284" d="M 181.5,57.5 C 182.713,58.4971 182.546,59.4971 181,60.5C 180.53,59.4232 180.697,58.4232 181.5,57.5 Z"/></g>
<g><path style="opacity:1" fill="#706887" d="M 187.5,57.5 C 188.043,57.56 188.376,57.8933 188.5,58.5C 187.985,60.2251 187.318,61.8917 186.5,63.5C 186.167,63.3333 185.833,63.1667 185.5,63C 186.244,61.1852 186.911,59.3519 187.5,57.5 Z"/></g>
<g><path style="opacity:1" fill="#5f74a1" d="M 232.5,57.5 C 233.621,59.0894 233.454,60.7561 232,62.5C 231.36,60.735 231.527,59.0683 232.5,57.5 Z"/></g>
<g><path style="opacity:1" fill="#0d0d0e" d="M 193.5,67.5 C 241.882,64.4248 275.382,85.0915 294,129.5C 304.52,167.59 295.353,200.09 266.5,227C 238.258,248.94 207.258,253.94 173.5,242C 133.906,223.041 115.073,191.541 117,147.5C 125.356,104.313 150.856,77.6464 193.5,67.5 Z"/></g>
<g><path style="opacity:1" fill="#252525" d="M 196.5,74.5 C 240.005,71.9866 270.172,90.6532 287,130.5C 297.933,171.375 286.433,204.208 252.5,229C 219.082,246.979 186.748,245.313 155.5,224C 127.872,199.683 118.372,169.517 127,133.5C 135.611,107.223 152.777,89.0567 178.5,79C 184.545,77.1104 190.545,75.6104 196.5,74.5 Z"/></g>
<g><path style="opacity:1" fill="#68686f" d="M 199.5,92.5 C 237.506,92.0155 261.673,110.015 272,146.5C 275.293,174.663 265.459,196.829 242.5,213C 215.733,227.113 190.066,225.446 165.5,208C 143.729,187.082 137.562,162.248 147,133.5C 157.569,110.816 175.069,97.1492 199.5,92.5 Z"/></g>
<g><path style="opacity:1" fill="#dde4e0" d="M 255.5,118.5 C 262.838,123.513 266.172,130.513 265.5,139.5C 264.279,148.556 259.279,154.389 250.5,157C 237.728,158.864 229.228,153.697 225,141.5C 223.859,127.147 230.359,118.813 244.5,116.5C 248.27,116.694 251.937,117.36 255.5,118.5 Z"/></g>
<g><path style="opacity:1" fill="#19a346" d="M 241.5,118.5 C 252.074,118.032 259.241,122.698 263,132.5C 263.488,148.677 255.654,155.844 239.5,154C 227.211,147.458 224.378,137.958 231,125.5C 234.154,122.488 237.654,120.155 241.5,118.5 Z"/></g>
<g><path style="opacity:1" fill="#e1dedb" d="M 149.5,139.5 C 148.821,129.518 152.821,122.185 161.5,117.5C 177.921,114.04 187.588,120.54 190.5,137C 188.203,151.965 179.537,158.631 164.5,157C 155.721,154.389 150.721,148.556 149.5,139.5 Z"/></g>
<g><path style="opacity:1" fill="#8a5827" d="M 163.5,119.5 C 182.171,117.997 189.671,126.331 186,144.5C 180.958,153.08 173.458,156.247 163.5,154C 153.262,148.694 149.762,140.527 153,129.5C 155.738,125.26 159.238,121.926 163.5,119.5 Z"/></g>
<g><path style="opacity:1" fill="#3e3e44" d="M 255.5,118.5 C 251.937,117.36 248.27,116.694 244.5,116.5C 230.359,118.813 223.859,127.147 225,141.5C 229.228,153.697 237.728,158.864 250.5,157C 259.279,154.389 264.279,148.556 265.5,139.5C 266.117,139.389 266.617,139.056 267,138.5C 275.01,171.487 264.51,196.654 235.5,214C 205.455,226.522 179.621,220.688 158,196.5C 145.233,178.86 141.9,159.526 148,138.5C 148.383,139.056 148.883,139.389 149.5,139.5C 150.721,148.556 155.721,154.389 164.5,157C 179.537,158.631 188.203,151.965 190.5,137C 187.588,120.54 177.921,114.04 161.5,117.5C 161.062,117.565 160.728,117.399 160.5,117C 181.14,95.4698 205.473,90.1365 233.5,101C 242.511,104.857 249.844,110.69 255.5,118.5 Z"/></g>
<g><path style="opacity:1" fill="#dddfe5" d="M 201.5,158.5 C 218.351,157.195 227.184,164.862 228,181.5C 224.51,194.66 216.01,200.493 202.5,199C 191.153,194.818 185.987,186.651 187,174.5C 189.6,167.07 194.433,161.737 201.5,158.5 Z"/></g>
<g><path style="opacity:1" fill="#255fe7" d="M 203.5,160.5 C 219.206,160.369 226.373,168.035 225,183.5C 219.434,196.365 210.267,199.865 197.5,194C 187.69,184.912 187.023,175.245 195.5,165C 198.099,163.205 200.766,161.705 203.5,160.5 Z"/></g>
<g><path style="opacity:1" fill="#514d7a" d="M 230.5,264.5 C 229.539,262.735 229.205,260.735 229.5,258.5C 230.833,258.5 232.167,258.5 233.5,258.5C 234.78,258.363 235.113,260.697 234.5,265.5C 232.901,265.768 231.568,265.434 230.5,264.5 Z"/></g>
<g><path style="opacity:1" fill="#7a5c66" d="M 101.5,255.5 C 104.797,255.329 105.131,255.995 102.5,257.5C 101.702,257.043 101.369,256.376 101.5,255.5 Z"/></g>
<g><path style="opacity:1" fill="#765771" d="M 298.5,255.5 C 301.797,255.329 302.131,255.995 299.5,257.5C 298.702,257.043 298.369,256.376 298.5,255.5 Z"/></g>
<g><path style="opacity:1" fill="#765771" d="M 322.5,255.5 C 325.797,255.329 326.131,255.995 323.5,257.5C 322.702,257.043 322.369,256.376 322.5,255.5 Z"/></g>
<g><path style="opacity:1" fill="#6e4548" d="M 125.5,258.5 C 126.468,260.607 126.802,262.941 126.5,265.5C 122.162,265.378 121.828,265.045 125.5,264.5C 125.5,262.5 125.5,260.5 125.5,258.5 Z"/></g>
<g><path style="opacity:1" fill="#986f57" d="M 199.5,255.5 C 199.81,258.713 199.477,261.713 198.5,264.5C 198.923,262.219 198.256,260.552 196.5,259.5C 196.167,259.5 195.833,259.5 195.5,259.5C 196.209,258.596 197.209,258.263 198.5,258.5C 198.263,257.209 198.596,256.209 199.5,255.5 Z"/></g>
<g><path style="opacity:1" fill="#587cac" d="M 251.5,258.5 C 252.008,260.842 253.008,263.009 254.5,265C 253.552,265.483 252.552,265.649 251.5,265.5C 251.5,263.167 251.5,260.833 251.5,258.5 Z"/></g>
<g><path style="opacity:1" fill="#b0a9b0" d="M 101.5,258.5 C 105.473,259.075 106.473,261.242 104.5,265C 101.771,265.801 100.105,264.801 99.5,262C 99.8618,260.566 100.528,259.399 101.5,258.5 Z"/></g>
<g><path style="opacity:1" fill="#4e4a6d" d="M 243.5,258.5 C 245.167,258.5 246.833,258.5 248.5,258.5C 248.663,260.857 248.497,263.19 248,265.5C 246.891,257.715 245.558,257.715 244,265.5C 243.503,263.19 243.337,260.857 243.5,258.5 Z"/></g>
<g><path style="opacity:1" fill="#436b9d" d="M 295.5,256.5 C 296.267,257.172 296.934,258.005 297.5,259C 296.68,261.333 296.347,263.5 296.5,265.5C 295.144,262.429 294.811,259.429 295.5,256.5 Z"/></g>
<g><path style="opacity:1" fill="#6d424a" d="M 94.5,259.5 C 95.209,258.596 96.209,258.263 97.5,258.5C 97.6633,260.857 97.4966,263.19 97,265.5C 96.9977,262.949 96.1644,260.949 94.5,259.5 Z"/></g>
<g><path style="opacity:1" fill="#486c9d" d="M 129.5,258.5 C 133.838,258.622 134.172,258.955 130.5,259.5C 130.662,261.527 130.495,263.527 130,265.5C 129.503,263.19 129.337,260.857 129.5,258.5 Z"/></g>
<g><path style="opacity:1" fill="#865148" d="M 134.5,259.5 C 135.209,258.596 136.209,258.263 137.5,258.5C 137.663,260.857 137.497,263.19 137,265.5C 136.998,262.949 136.164,260.949 134.5,259.5 Z"/></g>
<g><path style="opacity:1" fill="#676a9d" d="M 147.5,258.5 C 149.273,259.314 149.773,260.648 149,262.5C 148.209,261.255 147.709,259.922 147.5,258.5 Z"/></g>
<g><path style="opacity:1" fill="#e7f0ed" d="M 166.5,259.5 C 168.256,260.552 168.923,262.219 168.5,264.5C 166.744,263.448 166.077,261.781 166.5,259.5 Z"/></g>
<g><path style="opacity:1" fill="#9a7577" d="M 166.5,259.5 C 167.542,258.209 168.708,258.209 170,259.5C 170.78,261.387 170.613,263.054 169.5,264.5C 169.167,264.5 168.833,264.5 168.5,264.5C 168.923,262.219 168.256,260.552 166.5,259.5 Z"/></g>
<g><path style="opacity:1" fill="#454174" d="M 172.5,258.5 C 173.552,258.351 174.552,258.517 175.5,259C 173.901,260.786 173.067,262.953 173,265.5C 172.503,263.19 172.337,260.857 172.5,258.5 Z"/></g>
<g><path style="opacity:1" fill="#e7f0ed" d="M 207.5,259.5 C 209.256,260.552 209.923,262.219 209.5,264.5C 207.744,263.448 207.077,261.781 207.5,259.5 Z"/></g>
<g><path style="opacity:1" fill="#9a7577" d="M 207.5,259.5 C 208.542,258.209 209.708,258.209 211,259.5C 211.78,261.387 211.613,263.054 210.5,264.5C 210.167,264.5 209.833,264.5 209.5,264.5C 209.923,262.219 209.256,260.552 207.5,259.5 Z"/></g>
<g><path style="opacity:1" fill="#454174" d="M 213.5,258.5 C 214.552,258.351 215.552,258.517 216.5,259C 214.901,260.786 214.067,262.953 214,265.5C 213.503,263.19 213.337,260.857 213.5,258.5 Z"/></g>
<g><path style="opacity:1" fill="#5a709e" d="M 222.5,264.5 C 222.768,262.901 222.434,261.568 221.5,260.5C 221.44,259.957 221.107,259.624 220.5,259.5C 219.548,261.045 219.215,262.712 219.5,264.5C 219.167,264.5 218.833,264.5 218.5,264.5C 218.5,262.5 218.5,260.5 218.5,258.5C 223.252,258.341 224.586,260.341 222.5,264.5 Z"/></g>
<g><path style="opacity:1" fill="#eff2e8" d="M 221.5,260.5 C 221.843,262.483 221.176,263.817 219.5,264.5C 219.215,262.712 219.548,261.045 220.5,259.5C 221.107,259.624 221.44,259.957 221.5,260.5 Z"/></g>
<g><path style="opacity:1" fill="#e9e3d6" d="M 230.5,264.5 C 230.215,262.712 230.548,261.045 231.5,259.5C 233.217,260.668 233.884,262.335 233.5,264.5C 232.5,264.5 231.5,264.5 230.5,264.5 Z"/></g>
<g><path style="opacity:1" fill="#e7f0ed" d="M 281.5,259.5 C 283.256,260.552 283.923,262.219 283.5,264.5C 281.744,263.448 281.077,261.781 281.5,259.5 Z"/></g>
<g><path style="opacity:1" fill="#9a7577" d="M 281.5,259.5 C 282.542,258.209 283.708,258.209 285,259.5C 285.78,261.387 285.613,263.054 284.5,264.5C 284.167,264.5 283.833,264.5 283.5,264.5C 283.923,262.219 283.256,260.552 281.5,259.5 Z"/></g>
<g><path style="opacity:1" fill="#5c4059" d="M 298.5,258.5 C 299.552,258.351 300.552,258.517 301.5,259C 299.901,260.786 299.067,262.953 299,265.5C 298.503,263.19 298.337,260.857 298.5,258.5 Z"/></g>
<g><path style="opacity:1" fill="#f1ede3" d="M 312.5,259.5 C 313.649,259.791 314.316,260.624 314.5,262C 314.316,263.376 313.649,264.209 312.5,264.5C 312.5,262.833 312.5,261.167 312.5,259.5 Z"/></g>
<g><path style="opacity:1" fill="#494e70" d="M 85.5,259.5 C 87.0394,261.982 88.5394,261.982 90,259.5C 90.4828,260.448 90.6495,261.448 90.5,262.5C 88.549,262.227 87.049,262.893 86,264.5C 85.5065,262.866 85.3398,261.199 85.5,259.5 Z"/></g>
<g><path style="opacity:1" fill="#d5ac84" d="M 155.5,261.5 C 155.629,263.216 155.962,264.883 156.5,266.5C 154.853,265.537 153.853,263.537 153.5,260.5C 153.667,259.833 153.833,259.167 154,258.5C 154.232,259.737 154.732,260.737 155.5,261.5 Z"/></g>
<g><path style="opacity:1" fill="#7c6f76" d="M 262.5,258.5 C 264.144,258.286 265.644,258.62 267,259.5C 267.495,261.473 267.662,263.473 267.5,265.5C 265.5,265.5 263.5,265.5 261.5,265.5C 261.5,264.167 261.5,262.833 261.5,261.5C 262.978,261.762 264.311,261.429 265.5,260.5C 264.726,259.289 263.893,259.289 263,260.5C 262.536,259.906 262.369,259.239 262.5,258.5 Z"/></g>
<g><path style="opacity:1" fill="#62525e" d="M 273.5,258.5 C 276.797,258.329 277.131,258.995 274.5,260.5C 275.325,261.386 276.325,261.719 277.5,261.5C 277.5,262.833 277.5,264.167 277.5,265.5C 272.959,265.669 272.626,265.002 276.5,263.5C 273.205,262.922 272.205,261.255 273.5,258.5 Z"/></g>
<g><path style="opacity:1" fill="#494e70" d="M 303.5,259.5 C 305.039,261.982 306.539,261.982 308,259.5C 308.483,260.448 308.649,261.448 308.5,262.5C 306.549,262.227 305.049,262.893 304,264.5C 303.506,262.866 303.34,261.199 303.5,259.5 Z"/></g>
<g><path style="opacity:1" fill="#807073" d="M 312.5,259.5 C 315.004,257.969 316.337,258.803 316.5,262C 316.337,265.197 315.004,266.031 312.5,264.5C 313.649,264.209 314.316,263.376 314.5,262C 314.316,260.624 313.649,259.791 312.5,259.5 Z"/></g>
<g><path style="opacity:1" fill="#635b6f" d="M 331.5,259.5 C 333.048,259.821 333.715,260.821 333.5,262.5C 331.801,262.34 330.134,262.506 328.5,263C 329.649,264.744 330.983,264.911 332.5,263.5C 333.696,263.846 333.696,264.346 332.5,265C 328.333,266.167 326.833,264.667 328,260.5C 329.756,261.985 330.923,261.652 331.5,259.5 Z"/></g>
<g><path style="opacity:1" fill="#787286" d="M 321.5,258.5 C 323.429,258.231 325.095,258.731 326.5,260C 325.451,260.492 324.451,260.326 323.5,259.5C 322.548,261.045 322.215,262.712 322.5,264.5C 323.552,264.351 324.552,264.517 325.5,265C 320.57,265.427 319.237,263.26 321.5,258.5 Z"/></g>
<g><path style="opacity:1" fill="#6c8ebb" d="M 156.5,266.5 C 155.962,264.883 155.629,263.216 155.5,261.5C 156.222,261.918 156.722,262.584 157,263.5C 157.333,262.5 157.667,261.5 158,260.5C 158.738,262.881 158.238,264.881 156.5,266.5 Z"/></g>
<g><path style="opacity:1" fill="#7a6674" d="M 114.5,258.5 C 116.167,258.5 117.833,258.5 119.5,258.5C 119.665,261.518 119.498,264.518 119,267.5C 117.506,268.747 116.006,268.747 114.5,267.5C 115.397,267.331 116.397,266.998 117.5,266.5C 116.675,265.614 115.675,265.281 114.5,265.5C 114.5,263.167 114.5,260.833 114.5,258.5 Z"/></g>
<g><path style="opacity:1" fill="#e9f3ed" d="M 115.5,259.5 C 116.649,259.791 117.316,260.624 117.5,262C 117.167,262.833 116.833,263.667 116.5,264.5C 115.548,262.955 115.215,261.288 115.5,259.5 Z"/></g>
<g><path style="opacity:1" fill="#5e5274" d="M 150.5,262.5 C 151.713,263.497 151.546,264.497 150,265.5C 149.53,264.423 149.697,263.423 150.5,262.5 Z"/></g>
<g><path style="opacity:1" fill="#6d647b" d="M 199.5,255.5 C 200.479,258.625 200.813,261.958 200.5,265.5C 194.977,266.327 193.31,264.327 195.5,259.5C 195.833,259.5 196.167,259.5 196.5,259.5C 196.077,261.781 196.744,263.448 198.5,264.5C 199.477,261.713 199.81,258.713 199.5,255.5 Z"/></g>
<g><path style="opacity:1" fill="#ecf3eb" d="M 196.5,259.5 C 198.256,260.552 198.923,262.219 198.5,264.5C 196.744,263.448 196.077,261.781 196.5,259.5 Z"/></g>
<g><path style="opacity:1" fill="#81665b" d="M 221.5,260.5 C 222.434,261.568 222.768,262.901 222.5,264.5C 221.167,265.833 219.833,265.833 218.5,264.5C 218.833,264.5 219.167,264.5 219.5,264.5C 221.176,263.817 221.843,262.483 221.5,260.5 Z"/></g>
<g><path style="opacity:1" fill="#777086" d="M 166.5,259.5 C 166.077,261.781 166.744,263.448 168.5,264.5C 168.833,264.5 169.167,264.5 169.5,264.5C 168.791,265.404 167.791,265.737 166.5,265.5C 166.719,266.675 166.386,267.675 165.5,268.5C 164.343,265.216 164.176,261.882 165,258.5C 165.383,259.056 165.883,259.389 166.5,259.5 Z"/></g>
<g><path style="opacity:1" fill="#777086" d="M 207.5,259.5 C 207.077,261.781 207.744,263.448 209.5,264.5C 209.833,264.5 210.167,264.5 210.5,264.5C 209.791,265.404 208.791,265.737 207.5,265.5C 207.719,266.675 207.386,267.675 206.5,268.5C 205.343,265.216 205.176,261.882 206,258.5C 206.383,259.056 206.883,259.389 207.5,259.5 Z"/></g>
<g><path style="opacity:1" fill="#777086" d="M 281.5,259.5 C 281.077,261.781 281.744,263.448 283.5,264.5C 283.833,264.5 284.167,264.5 284.5,264.5C 283.791,265.404 282.791,265.737 281.5,265.5C 281.719,266.675 281.386,267.675 280.5,268.5C 279.343,265.216 279.176,261.882 280,258.5C 280.383,259.056 280.883,259.389 281.5,259.5 Z"/></g>
</svg>
