<?xml version="1.0" standalone="no"?>
<!DOCTYPE svg PUBLIC "-//W3C//DTD SVG 20010904//EN"
 "http://www.w3.org/TR/2001/REC-SVG-20010904/DTD/svg10.dtd">
<svg version="1.0" xmlns="http://www.w3.org/2000/svg"
 width="410.000000pt" height="287.000000pt" viewBox="0 0 410.000000 287.000000"
 preserveAspectRatio="xMidYMid meet">

<g transform="translate(0.000000,287.000000) scale(0.100000,-0.100000)"
fill="#000000" stroke="none">
<path d="M1800 2665 l0 -75 50 0 c38 0 50 4 50 15 0 10 -11 15 -35 15 l-35 0
0 60 c0 47 -3 60 -15 60 -12 0 -15 -15 -15 -75z"/>
<path d="M1915 2700 c14 -23 25 -54 25 -75 0 -24 5 -35 15 -35 10 0 15 10 15
31 0 17 12 50 26 75 21 36 23 44 10 44 -8 0 -23 -15 -32 -32 l-17 -33 -15 33
c-9 19 -23 32 -34 32 -17 0 -16 -4 7 -40z"/>
<path d="M2030 2730 c0 -5 7 -10 15 -10 8 0 15 5 15 10 0 6 -7 10 -15 10 -8 0
-15 -4 -15 -10z"/>
<path d="M2107 2722 c-45 -49 -18 -132 42 -132 31 0 72 35 49 42 -7 3 -21 0
-31 -6 -25 -16 -52 5 -52 39 0 36 27 55 55 38 23 -15 38 1 20 22 -17 21 -64
19 -83 -3z"/>
<path d="M2245 2700 c14 -23 25 -54 25 -75 0 -24 5 -35 15 -35 10 0 15 10 15
31 0 17 12 50 26 75 21 36 23 44 10 44 -8 0 -23 -15 -32 -32 l-17 -33 -15 33
c-9 19 -23 32 -34 32 -17 0 -16 -4 7 -40z"/>
<path d="M2030 2645 c0 -42 3 -55 15 -55 12 0 15 13 15 55 0 42 -3 55 -15 55
-12 0 -15 -13 -15 -55z"/>
<path d="M1420 2430 c-9 -6 -10 -10 -3 -10 6 0 15 5 18 10 8 12 4 12 -15 0z"/>
<path d="M1933 2390 c0 -30 2 -43 4 -27 2 15 2 39 0 55 -2 15 -4 2 -4 -28z"/>
<path d="M2303 2390 c0 -30 2 -43 4 -27 2 15 2 39 0 55 -2 15 -4 2 -4 -28z"/>
<path d="M2440 2426 c0 -7 -9 -16 -21 -19 -30 -8 -23 -61 9 -65 20 -3 22 0 22
47 0 28 -2 51 -5 51 -3 0 -5 -6 -5 -14z m0 -51 c0 -16 -6 -25 -15 -25 -9 0
-15 9 -15 25 0 16 6 25 15 25 9 0 15 -9 15 -25z"/>
<path d="M2673 2390 c-1 -30 1 -47 4 -37 2 9 8 17 13 17 5 0 14 -8 19 -17 6
-10 11 -13 11 -7 0 5 -5 15 -12 22 -8 8 -8 15 2 29 12 15 12 16 0 6 -21 -19
-28 -16 -33 15 -2 15 -4 2 -4 -28z"/>
<path d="M1249 2419 c-2 -27 3 -64 9 -71 4 -4 6 11 5 33 -1 39 -12 67 -14 38z"/>
<path d="M1190 2406 c0 -2 9 -6 20 -9 11 -3 18 -1 14 4 -5 9 -34 13 -34 5z"/>
<path d="M1293 2375 c0 -22 2 -30 4 -17 2 12 2 30 0 40 -3 9 -5 -1 -4 -23z"/>
<path d="M1323 2375 c0 -22 2 -30 4 -17 2 12 2 30 0 40 -3 9 -5 -1 -4 -23z"/>
<path d="M1347 2403 c6 -4 13 -22 16 -38 4 -27 5 -27 3 4 0 21 -7 36 -16 38
-10 3 -11 2 -3 -4z"/>
<path d="M1397 2403 c-4 -3 -7 -17 -7 -30 0 -26 26 -41 42 -25 8 8 5 9 -11 5
-11 -3 -21 -1 -21 5 0 6 10 13 23 15 l22 4 -22 2 c-13 0 -23 6 -23 12 0 6 9 9
20 6 11 -3 18 -1 14 4 -6 11 -28 12 -37 2z"/>
<path d="M1463 2375 c0 -22 2 -30 4 -17 2 12 2 30 0 40 -3 9 -5 -1 -4 -23z"/>
<path d="M1487 2403 c6 -4 13 -22 16 -38 4 -27 5 -27 3 4 0 21 -7 36 -16 38
-10 3 -11 2 -3 -4z"/>
<path d="M1630 2406 c0 -2 9 -6 20 -9 11 -3 18 -1 14 4 -5 9 -34 13 -34 5z"/>
<path d="M1693 2375 c0 -22 2 -30 4 -17 2 12 2 30 0 40 -3 9 -5 -1 -4 -23z"/>
<path d="M1724 2396 c-8 -22 -1 -49 14 -52 7 -1 8 0 2 3 -16 8 -12 53 5 53 11
0 15 -11 15 -41 0 -37 -2 -41 -21 -36 -16 4 -19 3 -11 -5 22 -22 42 0 42 47 0
39 -3 45 -20 45 -11 0 -23 -6 -26 -14z"/>
<path d="M1793 2375 c0 -22 2 -30 4 -17 2 12 2 30 0 40 -3 9 -5 -1 -4 -23z"/>
<path d="M1817 2403 c6 -4 13 -22 16 -38 4 -27 5 -27 3 4 0 21 -7 36 -16 38
-10 3 -11 2 -3 -4z"/>
<path d="M1866 2401 c-3 -5 3 -7 14 -4 11 3 20 1 20 -5 0 -5 -9 -12 -21 -15
-22 -6 -22 -29 -1 -33 7 -1 8 0 2 3 -15 7 -12 23 4 23 8 0 17 -8 20 -17 2 -10
4 -2 3 17 -2 34 -27 54 -41 31z"/>
<path d="M1963 2375 c0 -22 2 -30 4 -17 2 12 2 30 0 40 -3 9 -5 -1 -4 -23z"/>
<path d="M1987 2403 c6 -4 13 -22 16 -38 4 -27 5 -27 3 4 0 21 -7 36 -16 38
-10 3 -11 2 -3 -4z"/>
<path d="M2033 2375 c0 -22 2 -30 4 -17 2 12 2 30 0 40 -3 9 -5 -1 -4 -23z"/>
<path d="M2174 2396 c-10 -26 0 -51 21 -51 16 0 20 7 20 30 0 33 -30 49 -41
21z m36 -21 c0 -16 -6 -25 -15 -25 -9 0 -15 9 -15 25 0 16 6 25 15 25 9 0 15
-9 15 -25z"/>
<path d="M2236 2397 c3 -10 9 -15 12 -12 3 3 0 11 -7 18 -10 9 -11 8 -5 -6z"/>
<path d="M2336 2401 c-3 -5 3 -7 14 -4 11 3 20 0 20 -6 0 -6 -9 -11 -20 -11
-13 0 -20 -7 -20 -20 0 -15 6 -19 25 -18 22 2 26 7 23 33 -3 30 -30 47 -42 26z
m29 -41 c-3 -5 -10 -10 -16 -10 -5 0 -9 5 -9 10 0 6 7 10 16 10 8 0 12 -4 9
-10z"/>
<path d="M2476 2401 c-3 -5 3 -7 14 -4 11 3 20 0 20 -6 0 -6 -9 -11 -20 -11
-13 0 -20 -7 -20 -20 0 -15 6 -19 25 -18 22 2 26 7 23 33 -3 30 -30 47 -42 26z
m29 -41 c-3 -5 -10 -10 -16 -10 -5 0 -9 5 -9 10 0 6 7 10 16 10 8 0 12 -4 9
-10z"/>
<path d="M2547 2403 c-4 -3 -7 -17 -7 -30 0 -26 26 -41 42 -25 8 8 5 9 -11 5
-18 -4 -21 -1 -21 22 0 22 4 26 20 22 11 -3 18 -1 14 4 -6 11 -28 12 -37 2z"/>
<path d="M2746 2401 c-4 -5 3 -7 14 -4 23 6 26 13 6 13 -8 0 -17 -4 -20 -9z"/>
<path d="M2815 2400 c-4 -6 -4 -14 -1 -17 3 -4 6 -1 6 5 0 7 7 12 15 12 10 0
15 -10 15 -26 0 -22 -4 -25 -21 -21 -16 4 -19 3 -11 -5 19 -19 44 -1 40 29 -3
29 -31 43 -43 23z"/>
<path d="M2886 2401 c-4 -5 3 -7 14 -4 23 6 26 13 6 13 -8 0 -17 -4 -20 -9z"/>
<path d="M1195 2380 c3 -4 14 -10 25 -13 11 -3 18 -2 15 3 -3 4 -14 10 -25 13
-11 3 -18 2 -15 -3z"/>
<path d="M1635 2380 c3 -4 14 -10 25 -13 11 -3 18 -2 15 3 -3 4 -14 10 -25 13
-11 3 -18 2 -15 -3z"/>
<path d="M2755 2380 c-19 -8 -19 -9 3 -9 12 -1 22 4 22 9 0 6 -1 10 -2 9 -2 0
-12 -4 -23 -9z"/>
<path d="M2895 2380 l-30 -8 33 -1 c17 0 32 4 32 9 0 6 -1 9 -2 9 -2 -1 -16
-5 -33 -9z"/>
<path d="M1540 2361 c0 -5 5 -13 10 -16 6 -3 10 -2 10 4 0 5 -4 13 -10 16 -5
3 -10 2 -10 -4z"/>
<path d="M2250 2360 c0 -5 5 -10 11 -10 5 0 7 5 4 10 -3 6 -8 10 -11 10 -2 0
-4 -4 -4 -10z"/>
<path d="M2740 2348 c0 -4 11 -7 25 -6 28 3 24 11 -5 13 -11 1 -20 -2 -20 -7z"/>
<path d="M2887 2348 c2 -5 10 -8 18 -8 8 0 16 3 18 8 3 4 -5 7 -18 7 -13 0
-21 -3 -18 -7z"/>
<path d="M1198 2343 c6 -2 18 -2 25 0 6 3 1 5 -13 5 -14 0 -19 -2 -12 -5z"/>
<path d="M1638 2343 c6 -2 18 -2 25 0 6 3 1 5 -13 5 -14 0 -19 -2 -12 -5z"/>
<path d="M1875 2283 c-212 -45 -405 -165 -539 -334 -300 -379 -266 -913 79
-1252 172 -170 410 -267 655 -267 426 0 806 294 910 704 131 517 -198 1042
-722 1150 -97 20 -288 20 -383 -1z m429 -78 c258 -75 454 -243 561 -479 60
-134 70 -184 70 -366 -1 -161 -1 -168 -34 -262 -44 -128 -106 -232 -194 -325
-153 -161 -320 -246 -540 -273 -76 -10 -118 -10 -194 0 -220 27 -387 112 -540
273 -88 93 -150 197 -194 325 -33 94 -33 101 -34 262 0 182 10 232 70 366 121
266 362 450 662 504 89 16 269 4 367 -25z"/>
<path d="M2070 2106 c0 -24 4 -26 40 -26 33 0 40 3 40 20 0 14 -7 20 -24 20
-13 0 -31 3 -40 6 -12 5 -16 0 -16 -20z"/>
<path d="M1931 2111 c-19 -12 -6 -41 18 -41 33 0 51 11 51 31 0 14 -7 19 -27
19 -16 0 -34 -4 -42 -9z"/>
<path d="M2226 2102 c-3 -3 -6 -13 -6 -22 0 -18 53 -36 71 -24 8 4 13 34 6 34
-1 0 -16 4 -34 9 -17 5 -34 7 -37 3z"/>
<path d="M1800 2077 c-14 -6 -26 -12 -28 -13 -8 -4 12 -34 24 -34 31 0 62 22
57 41 -6 21 -17 23 -53 6z"/>
<path d="M2366 2044 c-9 -23 -9 -22 26 -40 30 -15 32 -15 45 2 12 16 10 20
-19 36 -41 21 -44 22 -52 2z"/>
<path d="M1662 2008 c-26 -16 -30 -23 -21 -34 15 -18 29 -17 57 4 15 12 21 24
16 35 -8 21 -11 21 -52 -5z"/>
<path d="M2495 1963 c-4 -12 1 -24 15 -35 46 -37 80 -9 36 29 -32 28 -42 29
-51 6z"/>
<path d="M1546 1914 c-27 -24 -28 -27 -12 -42 15 -15 18 -14 43 11 24 24 26
29 13 41 -13 13 -19 12 -44 -10z"/>
<path d="M2610 1865 c-9 -11 -8 -19 7 -39 20 -28 35 -32 51 -13 7 9 4 20 -13
40 -28 31 -29 32 -45 12z"/>
<path d="M1442 1794 c-21 -33 -21 -34 -3 -44 16 -8 23 -5 40 19 25 35 26 38 3
50 -14 7 -22 3 -40 -25z"/>
<path d="M2020 1763 c-95 -49 -83 -183 20 -214 53 -16 107 10 134 65 17 36 18
43 5 79 -25 71 -96 102 -159 70z"/>
<path d="M2694 1735 c-4 -8 1 -26 10 -40 14 -21 20 -24 37 -15 19 11 19 12 2
40 -19 33 -40 39 -49 15z"/>
<path d="M1700 1703 c-61 -54 -48 -153 24 -187 42 -20 69 -20 106 -1 37 19 60
62 60 111 0 28 -8 44 -34 70 -29 29 -41 34 -80 34 -36 0 -52 -6 -76 -27z"/>
<path d="M2284 1696 c-26 -26 -34 -42 -34 -70 0 -49 23 -92 60 -111 37 -19 64
-19 106 1 109 52 69 214 -52 214 -39 0 -51 -5 -80 -34z"/>
<path d="M1370 1665 c-18 -55 15 -80 38 -30 16 35 15 43 -7 55 -17 9 -21 5
-31 -25z"/>
<path d="M2768 1612 c-20 -4 -22 -19 -8 -56 10 -27 17 -31 38 -18 19 13 -7 79
-30 74z"/>
<path d="M1326 1519 c-9 -46 -8 -49 13 -49 31 0 44 63 15 74 -9 3 -17 6 -19 6
-1 0 -5 -14 -9 -31z"/>
<path d="M2797 1462 c-28 -6 -19 -66 11 -70 19 -3 22 1 22 32 0 38 -6 45 -33
38z"/>
<path d="M1310 1361 c0 -35 3 -41 21 -41 17 0 20 5 17 37 -2 27 -8 39 -20 41
-15 3 -18 -4 -18 -37z"/>
<path d="M1775 1346 c-98 -43 -96 -171 2 -213 77 -32 153 22 153 109 0 52 -21
85 -66 104 -40 17 -51 17 -89 0z m107 -35 c82 -73 -1 -203 -103 -161 -72 30
-77 138 -8 176 39 22 76 17 111 -15z"/>
<path d="M2364 1350 c-67 -27 -95 -121 -52 -175 71 -91 208 -48 208 65 0 81
-83 140 -156 110z"/>
<path d="M2786 1338 c-10 -38 -7 -45 19 -50 23 -5 25 -2 25 33 0 32 -4 39 -19
39 -11 0 -21 -9 -25 -22z"/>
<path d="M1326 1242 c-12 -19 6 -72 24 -72 25 0 28 7 21 43 -7 31 -33 48 -45
29z"/>
<path d="M2034 1196 c-29 -29 -34 -41 -34 -81 0 -40 5 -52 34 -81 39 -39 86
-45 136 -19 107 56 58 215 -66 215 -28 0 -44 -8 -70 -34z"/>
<path d="M2762 1182 c-6 -20 -10 -37 -9 -38 1 -1 12 -4 23 -8 18 -5 22 -1 28
25 9 44 8 46 -13 52 -14 3 -21 -4 -29 -31z"/>
<path d="M1378 1097 c-14 -10 -14 -16 -2 -45 12 -28 17 -31 34 -22 16 9 17 14
8 40 -12 37 -21 43 -40 27z"/>
<path d="M2707 1044 c-16 -32 -16 -34 4 -45 24 -12 21 -14 43 28 9 17 13 34 8
36 -30 17 -40 13 -55 -19z"/>
<path d="M1448 967 c-15 -12 -15 -15 4 -45 22 -36 30 -39 48 -18 9 12 7 21
-11 45 -13 17 -23 31 -23 31 -1 0 -9 -6 -18 -13z"/>
<path d="M2630 920 c-12 -16 -18 -34 -15 -40 11 -18 33 -10 55 19 20 30 20 30
1 40 -16 9 -23 6 -41 -19z"/>
<path d="M1540 845 c-10 -12 -7 -19 17 -39 24 -21 30 -23 42 -11 13 13 12 18
-9 40 -27 29 -33 30 -50 10z"/>
<path d="M2525 815 c-28 -23 -29 -25 -12 -42 16 -17 18 -16 44 10 24 24 26 29
13 41 -13 13 -19 12 -45 -9z"/>
<path d="M1661 751 c-9 -16 -6 -23 22 -40 30 -19 33 -20 45 -3 11 14 10 19 -5
30 -41 31 -52 33 -62 13z"/>
<path d="M2402 731 c-29 -15 -31 -19 -19 -35 14 -19 15 -19 45 0 35 20 38 27
20 42 -9 7 -23 5 -46 -7z"/>
<path d="M1793 684 c-8 -20 6 -32 45 -40 28 -6 32 -4 32 14 0 14 -10 24 -31
31 -40 14 -38 14 -46 -5z"/>
<path d="M2263 679 c-25 -7 -30 -13 -26 -30 5 -17 11 -19 37 -13 39 8 48 16
40 37 -7 19 -6 19 -51 6z"/>
<path d="M1940 641 c0 -21 19 -31 56 -31 32 0 33 35 2 44 -41 11 -58 7 -58
-13z"/>
<path d="M2118 653 c-20 -3 -28 -10 -28 -24 0 -16 7 -19 40 -19 22 0 40 4 40
9 0 16 -12 41 -19 40 -3 -1 -18 -4 -33 -6z"/>
<path d="M1186 378 c3 -5 10 -6 15 -3 13 9 11 12 -6 12 -8 0 -12 -4 -9 -9z"/>
<path d="M1816 378 c3 -5 10 -6 15 -3 13 9 11 12 -6 12 -8 0 -12 -4 -9 -9z"/>
<path d="M2266 378 c3 -5 10 -6 15 -3 13 9 11 12 -6 12 -8 0 -12 -4 -9 -9z"/>
<path d="M2320 376 c7 -7 14 -6 21 1 9 9 7 12 -9 10 -14 -1 -18 -5 -12 -11z"/>
<path d="M2520 379 c0 -5 5 -7 10 -4 6 3 10 8 10 11 0 2 -4 4 -10 4 -5 0 -10
-5 -10 -11z"/>
<path d="M2973 340 c0 -30 2 -43 4 -27 2 15 2 39 0 55 -2 15 -4 2 -4 -28z"/>
<path d="M1018 370 c-5 -17 3 -80 11 -80 7 0 6 79 -2 86 -3 3 -7 0 -9 -6z"/>
<path d="M1579 369 c-2 -27 3 -64 9 -71 4 -4 6 11 5 33 -1 39 -12 67 -14 38z"/>
<path d="M945 350 c-8 -14 3 -30 21 -30 8 0 14 -5 14 -11 0 -6 -9 -9 -20 -6
-11 3 -18 1 -14 -4 11 -18 44 -10 44 11 0 11 -6 20 -14 20 -8 0 -18 5 -22 12
-5 8 0 9 14 6 12 -4 20 -2 16 3 -7 12 -31 11 -39 -1z"/>
<path d="M1053 325 c0 -22 2 -30 4 -17 2 12 2 30 0 40 -3 9 -5 -1 -4 -23z"/>
<path d="M1092 323 c1 -37 1 -37 5 -5 3 18 10 32 18 32 8 0 16 -14 18 -32 l5
-33 -2 35 c-1 28 -5 36 -23 38 -21 3 -23 -1 -21 -35z"/>
<path d="M1170 345 c-23 -28 17 -72 42 -47 8 8 5 9 -9 6 -12 -3 -24 -1 -27 5
-5 7 3 11 19 11 21 0 26 4 21 16 -3 9 -6 18 -6 20 0 10 -29 3 -40 -11z m35 -5
c3 -5 -3 -10 -15 -10 -12 0 -18 5 -15 10 3 6 10 10 15 10 5 0 12 -4 15 -10z"/>
<path d="M1242 323 c1 -37 1 -37 5 -5 3 18 10 32 18 32 8 0 16 -14 18 -32 l5
-33 -2 35 c-1 28 -5 36 -23 38 -21 3 -23 -1 -21 -35z"/>
<path d="M1313 325 c0 -22 2 -30 4 -17 2 12 2 30 0 40 -3 9 -5 -1 -4 -23z"/>
<path d="M1391 308 c1 -29 3 -46 6 -37 2 10 13 19 24 22 30 8 23 61 -8 65 -22
3 -23 0 -22 -50z m39 17 c0 -16 -6 -25 -15 -25 -9 0 -15 9 -15 25 0 16 6 25
15 25 9 0 15 -9 15 -25z"/>
<path d="M1461 323 c2 -35 2 -35 6 -8 3 16 10 33 16 37 8 5 6 8 -5 8 -14 0
-18 -8 -17 -37z"/>
<path d="M1511 342 c-7 -14 -7 -24 3 -37 19 -27 48 -12 44 22 -4 33 -32 42
-47 15z m36 -8 c8 -22 -15 -44 -26 -25 -10 16 -4 41 10 41 5 0 12 -7 16 -16z"/>
<path d="M1623 325 c0 -22 2 -30 4 -17 2 12 2 30 0 40 -3 9 -5 -1 -4 -23z"/>
<path d="M1691 323 c2 -35 2 -35 6 -8 3 16 10 33 16 37 8 5 6 8 -5 8 -14 0
-18 -8 -17 -37z"/>
<path d="M1733 328 c1 -26 7 -34 25 -36 20 -3 22 1 20 35 -1 37 -1 37 -5 6 -5
-42 -30 -43 -37 -3 -6 30 -6 30 -3 -2z"/>
<path d="M1805 350 c-8 -14 3 -30 21 -30 8 0 14 -5 14 -11 0 -7 -9 -9 -21 -6
-16 4 -19 3 -11 -5 6 -6 18 -8 26 -5 20 8 21 37 2 37 -8 0 -18 5 -22 12 -5 8
0 9 14 6 12 -4 20 -2 16 3 -7 12 -31 11 -39 -1z"/>
<path d="M1874 346 c-10 -26 1 -51 24 -54 12 -2 22 1 22 6 0 6 -9 8 -20 5 -11
-3 -20 -1 -20 5 0 6 12 13 28 15 l27 4 -27 2 c-16 0 -28 6 -28 12 0 6 9 9 20
6 11 -3 18 -1 14 4 -8 14 -34 11 -40 -5z"/>
<path d="M1952 323 c1 -37 1 -37 5 -5 3 18 10 32 18 32 8 0 16 -14 18 -32 l5
-33 -2 35 c-1 28 -5 36 -23 38 -21 3 -23 -1 -21 -35z"/>
<path d="M2023 325 c0 -22 2 -30 4 -17 2 12 2 30 0 40 -3 9 -5 -1 -4 -23z"/>
<path d="M2131 320 c1 -34 2 -34 8 -6 9 43 31 45 32 4 l1 -33 7 29 c9 42 29
44 34 4 l4 -33 1 37 2 37 -45 -2 c-45 -1 -45 -1 -44 -37z"/>
<path d="M2256 351 c-3 -5 3 -7 14 -4 11 3 20 1 20 -5 0 -6 -12 -13 -27 -15
-26 -4 -25 -4 5 -6 27 -1 33 2 30 16 -4 20 -33 29 -42 14z"/>
<path d="M2321 323 c2 -35 2 -35 6 -8 3 16 10 33 16 37 8 5 6 8 -5 8 -14 0
-18 -8 -17 -37z"/>
<path d="M2370 345 c-23 -28 17 -72 42 -47 8 8 5 9 -9 6 -12 -3 -24 -1 -27 5
-5 7 3 11 19 11 21 0 26 4 21 16 -3 9 -6 18 -6 20 0 10 -29 3 -40 -11z m35 -5
c3 -5 -3 -10 -15 -10 -12 0 -18 5 -15 10 3 6 10 10 15 10 5 0 12 -4 15 -10z"/>
<path d="M2442 323 c1 -37 1 -37 5 -5 3 18 10 32 18 32 8 0 16 -14 18 -32 l5
-33 -2 35 c-1 28 -5 36 -23 38 -21 3 -23 -1 -21 -35z"/>
<path d="M2523 325 c0 -22 2 -30 4 -17 2 12 2 30 0 40 -3 9 -5 -1 -4 -23z"/>
<path d="M2596 351 c-3 -5 3 -7 14 -4 11 3 20 0 20 -6 0 -6 -9 -11 -20 -11
-13 0 -20 -7 -20 -20 0 -15 6 -19 25 -18 22 2 26 7 23 33 -3 30 -30 47 -42 26z
m29 -41 c-3 -5 -10 -10 -16 -10 -5 0 -9 5 -9 10 0 6 7 10 16 10 8 0 12 -4 9
-10z"/>
<path d="M2701 323 c2 -35 2 -35 6 -8 3 16 10 33 16 37 8 5 6 8 -5 8 -14 0
-18 -8 -17 -37z"/>
<path d="M2756 351 c-3 -5 3 -7 14 -4 11 3 20 1 20 -5 0 -6 -12 -13 -27 -15
-26 -4 -25 -4 5 -6 27 -1 33 2 30 16 -4 20 -33 29 -42 14z"/>
<path d="M2827 353 c-15 -15 -7 -55 13 -60 11 -3 20 -10 20 -15 0 -6 -10 -8
-21 -5 -16 4 -19 3 -11 -5 22 -22 42 0 42 47 0 37 -3 45 -18 45 -10 0 -22 -3
-25 -7z m33 -28 c0 -16 -6 -25 -15 -25 -9 0 -15 9 -15 25 0 16 6 25 15 25 9 0
15 -9 15 -25z"/>
<path d="M2891 340 c-1 -34 11 -49 37 -47 18 1 22 7 21 37 l-1 35 -7 -30 c-3
-17 -13 -30 -21 -30 -8 0 -18 13 -21 30 -6 27 -7 27 -8 5z"/>
<path d="M3006 351 c-3 -5 3 -7 14 -4 11 3 20 0 20 -6 0 -6 -9 -11 -20 -11
-13 0 -20 -7 -20 -20 0 -15 6 -19 25 -18 22 2 26 7 23 33 -3 30 -30 47 -42 26z
m29 -41 c-3 -5 -10 -10 -16 -10 -5 0 -9 5 -9 10 0 6 7 10 16 10 8 0 12 -4 9
-10z"/>
<path d="M3080 345 c-22 -27 17 -72 41 -48 6 6 2 9 -13 9 -17 -1 -23 5 -23 19
0 13 6 20 18 19 9 -1 17 2 17 7 0 14 -26 10 -40 -6z"/>
<path d="M3144 346 c-10 -26 1 -51 24 -54 12 -2 22 1 22 6 0 6 -9 8 -20 5 -11
-3 -20 -1 -20 5 0 6 12 13 28 15 l27 4 -27 2 c-16 0 -28 6 -28 12 0 6 9 9 20
6 11 -3 18 -1 14 4 -8 14 -34 11 -40 -5z"/>
<path d="M2257 298 c2 -5 10 -8 18 -8 8 0 16 3 18 8 3 4 -5 7 -18 7 -13 0 -21
-3 -18 -7z"/>
<path d="M2757 298 c2 -5 10 -8 18 -8 8 0 16 3 18 8 3 4 -5 7 -18 7 -13 0 -21
-3 -18 -7z"/>
</g>
</svg>
