<?xml version="1.0" standalone="no"?>
<!DOCTYPE svg PUBLIC "-//W3C//DTD SVG 20010904//EN"
 "http://www.w3.org/TR/2001/REC-SVG-20010904/DTD/svg10.dtd">
<svg version="1.0" xmlns="http://www.w3.org/2000/svg"
 width="412.000000pt" height="297.000000pt" viewBox="0 0 412.000000 297.000000"
 preserveAspectRatio="xMidYMid meet">

<g transform="translate(0.000000,297.000000) scale(0.100000,-0.100000)"
fill="#000000" stroke="none">
<path d="M1880 2725 c0 -60 3 -75 15 -75 11 0 15 12 15 48 l0 47 27 -47 c39
-71 53 -63 53 27 0 82 -17 104 -22 28 l-3 -48 -28 48 c-43 70 -57 63 -57 -28z"/>
<path d="M2020 2795 c0 -3 11 -23 25 -45 14 -22 25 -53 25 -70 0 -16 5 -30 10
-30 6 0 10 14 10 31 0 16 11 47 25 67 28 42 31 52 12 52 -8 0 -19 -11 -25 -25
-6 -14 -15 -25 -20 -25 -5 0 -15 11 -22 25 -11 21 -40 36 -40 20z"/>
<path d="M2160 2725 c0 -60 3 -75 15 -75 11 0 15 13 16 53 l1 52 12 -49 c15
-64 32 -69 46 -14 17 66 18 67 19 11 1 -40 5 -53 16 -53 12 0 15 15 15 76 0
72 -1 75 -22 72 -18 -2 -25 -12 -32 -45 -5 -24 -12 -43 -15 -43 -4 0 -12 20
-19 45 -9 34 -17 45 -32 45 -18 0 -20 -7 -20 -75z"/>
<path d="M2123 2450 c0 -30 2 -43 4 -27 2 15 2 39 0 55 -2 15 -4 2 -4 -28z"/>
<path d="M2230 2488 c0 -4 4 -8 9 -8 6 0 12 4 15 8 3 5 -1 9 -9 9 -8 0 -15 -4
-15 -9z"/>
<path d="M2423 2450 c-1 -30 1 -47 4 -37 2 9 9 17 15 17 7 0 7 4 0 13 -5 6
-12 23 -15 37 -2 14 -4 0 -4 -30z"/>
<path d="M2551 2455 c-1 -47 1 -51 23 -53 16 -1 27 5 31 17 9 28 -5 53 -26 48
-12 -3 -19 2 -22 17 -2 11 -5 -2 -6 -29z m46 -11 c8 -21 -13 -42 -28 -27 -13
13 -5 43 11 43 6 0 13 -7 17 -16z"/>
<path d="M2693 2450 c0 -30 2 -43 4 -27 2 15 2 39 0 55 -2 15 -4 2 -4 -28z"/>
<path d="M1482 2415 l1 -50 6 45 c5 35 10 45 23 44 10 -1 15 2 13 6 -3 5 -14
8 -25 7 -17 -1 -20 -8 -18 -52z"/>
<path d="M1557 2463 c-4 -3 -7 -17 -7 -30 0 -26 26 -41 42 -25 8 8 5 9 -11 5
-11 -3 -21 -1 -21 5 0 6 10 13 23 15 l22 4 -22 2 c-13 0 -23 6 -23 12 0 6 9 9
20 6 11 -3 18 -1 14 4 -6 11 -28 12 -37 2z"/>
<path d="M1656 2455 c-9 -26 -7 -32 5 -12 6 10 9 21 6 23 -2 3 -7 -2 -11 -11z"/>
<path d="M1681 2430 l1 -35 7 30 c4 20 12 30 24 29 9 -1 17 2 17 7 0 5 -11 8
-25 7 -22 -2 -25 -7 -24 -38z"/>
<path d="M1853 2435 c0 -22 2 -30 4 -17 2 12 2 30 0 40 -3 9 -5 -1 -4 -23z"/>
<path d="M1883 2435 c0 -22 2 -30 4 -17 2 12 2 30 0 40 -3 9 -5 -1 -4 -23z"/>
<path d="M1907 2463 c6 -4 13 -22 16 -38 4 -27 5 -27 3 4 0 21 -7 36 -16 38
-10 3 -11 2 -3 -4z"/>
<path d="M1955 2460 c-8 -14 3 -30 21 -30 8 0 14 -5 14 -11 0 -7 -9 -9 -21 -6
-16 4 -19 3 -11 -5 12 -12 42 -4 42 13 0 6 -9 13 -20 16 -25 7 -26 20 -2 26
15 4 15 5 0 6 -9 0 -20 -3 -23 -9z"/>
<path d="M2056 2461 c-3 -5 3 -7 14 -4 11 3 20 0 20 -6 0 -6 -9 -11 -20 -11
-13 0 -20 -7 -20 -20 0 -15 6 -19 25 -18 22 2 26 7 23 33 -3 30 -30 47 -42 26z
m29 -41 c-3 -5 -10 -10 -16 -10 -5 0 -9 5 -9 10 0 6 7 10 16 10 8 0 12 -4 9
-10z"/>
<path d="M2156 2461 c-4 -5 3 -7 14 -4 23 6 26 13 6 13 -8 0 -17 -4 -20 -9z"/>
<path d="M2226 2461 c-4 -5 3 -7 14 -4 23 6 26 13 6 13 -8 0 -17 -4 -20 -9z"/>
<path d="M2283 2435 c0 -22 2 -30 4 -17 2 12 2 30 0 40 -3 9 -5 -1 -4 -23z"/>
<path d="M2307 2463 c6 -4 13 -22 16 -38 4 -27 5 -27 3 4 0 21 -7 36 -16 38
-10 3 -11 2 -3 -4z"/>
<path d="M2353 2435 c0 -22 2 -30 4 -17 2 12 2 30 0 40 -3 9 -5 -1 -4 -23z"/>
<path d="M2445 2460 c-3 -6 1 -7 9 -4 18 7 21 14 7 14 -6 0 -13 -4 -16 -10z"/>
<path d="M2503 2463 c23 -6 22 -19 -4 -26 -22 -6 -22 -29 -1 -33 7 -1 8 0 2 3
-5 2 -10 9 -10 14 0 14 28 11 33 -3 3 -7 6 2 6 20 1 27 -2 32 -21 31 -17 -1
-19 -2 -5 -6z"/>
<path d="M2630 2455 c-23 -28 17 -72 42 -47 8 8 5 9 -9 6 -12 -3 -24 -1 -27 5
-5 7 3 11 18 11 28 0 33 9 14 28 -16 16 -23 15 -38 -3z m35 -5 c3 -5 -3 -10
-15 -10 -12 0 -18 5 -15 10 3 6 10 10 15 10 5 0 12 -4 15 -10z"/>
<path d="M2165 2440 c-19 -8 -19 -9 3 -9 12 -1 22 4 22 9 0 6 -1 10 -2 9 -2 0
-12 -4 -23 -9z"/>
<path d="M1764 2427 c3 -10 6 -24 7 -30 0 -7 5 -1 10 12 5 13 7 26 4 29 -3 3
-5 -1 -5 -9 0 -12 -2 -11 -11 1 -9 12 -10 12 -5 -3z"/>
<path d="M1630 2421 c0 -5 5 -13 10 -16 6 -3 10 -2 10 4 0 5 -4 13 -10 16 -5
3 -10 2 -10 -4z"/>
<path d="M1510 2410 c-9 -6 -10 -10 -3 -10 6 0 15 5 18 10 8 12 4 12 -15 0z"/>
<path d="M2150 2408 c0 -4 11 -7 25 -6 28 3 24 11 -5 13 -11 1 -20 -2 -20 -7z"/>
<path d="M2227 2408 c2 -5 10 -8 18 -8 8 0 16 3 18 8 3 4 -5 7 -18 7 -13 0
-21 -3 -18 -7z"/>
<path d="M1937 2350 c-350 -63 -635 -312 -740 -645 -98 -310 -21 -667 194
-900 36 -39 47 -45 81 -45 l40 0 -64 70 c-153 167 -231 365 -232 590 -4 659
681 1081 1274 785 398 -199 580 -686 413 -1104 -38 -97 -99 -192 -171 -271
l-64 -70 40 0 c34 0 45 6 81 45 171 186 261 467 231 722 -46 385 -303 688
-677 799 -71 21 -114 27 -223 29 -74 2 -157 0 -183 -5z"/>
<path d="M1620 1817 c-24 -12 -57 -40 -74 -60 -26 -32 -31 -48 -34 -105 -3
-56 0 -74 21 -112 27 -52 95 -99 154 -107 98 -13 199 57 222 155 41 168 -138
309 -289 229z"/>
<path d="M2390 1824 c-92 -40 -143 -139 -119 -236 23 -98 124 -168 222 -155
59 8 127 55 154 107 21 38 24 56 21 112 -3 57 -8 73 -34 105 -61 75 -162 103
-244 67z"/>
<path d="M2010 1404 c-78 -34 -120 -101 -120 -192 0 -81 39 -143 113 -177 66
-31 108 -31 174 0 157 73 151 302 -9 370 -47 19 -113 19 -158 -1z"/>
<path d="M1600 628 c70 -43 181 -89 267 -110 69 -17 117 -22 223 -22 171 0
273 23 420 97 l105 52 -52 3 c-42 2 -71 -4 -140 -32 -214 -86 -451 -86 -664
-1 -61 25 -102 35 -140 35 l-54 0 35 -22z"/>
<path d="M1280 436 c0 -7 -9 -16 -21 -19 -30 -8 -23 -61 9 -65 20 -3 22 0 22
47 0 28 -2 51 -5 51 -3 0 -5 -6 -5 -14z m0 -51 c0 -16 -6 -25 -15 -25 -9 0
-15 9 -15 25 0 16 6 25 15 25 9 0 15 -9 15 -25z"/>
<path d="M2083 400 c0 -30 2 -43 4 -27 2 15 2 39 0 55 -2 15 -4 2 -4 -28z"/>
<path d="M2401 398 c2 -51 2 -52 8 -14 l6 40 20 -37 c11 -20 23 -37 27 -37 5
0 7 24 6 53 l-1 52 -6 -44 -6 -44 -23 42 c-13 22 -25 41 -28 41 -2 0 -3 -24
-3 -52z"/>
<path d="M2501 430 c7 -14 16 -38 20 -55 6 -25 7 -26 8 -7 1 13 10 37 22 53
11 16 16 29 10 29 -6 0 -11 -3 -11 -7 0 -5 -5 -15 -10 -23 -9 -13 -13 -11 -31
10 l-20 25 12 -25z"/>
<path d="M2590 436 c0 -8 5 -18 10 -21 6 -3 10 1 10 9 0 8 -4 18 -10 21 -5 3
-10 -1 -10 -9z"/>
<path d="M2650 441 c0 -5 -5 -22 -11 -38 -8 -22 -12 -25 -21 -13 -8 12 -9 12
-4 -3 3 -10 6 -23 6 -28 0 -21 19 3 26 34 l8 32 7 -40 c6 -40 6 -39 8 13 0 29
-3 52 -9 52 -5 0 -10 -4 -10 -9z"/>
<path d="M2772 406 c-2 -38 -5 -47 -17 -42 -8 3 -15 1 -15 -4 0 -15 30 -12 36
4 3 8 4 31 1 52 -3 36 -4 36 -5 -10z"/>
<path d="M2921 398 c2 -51 2 -52 8 -13 l6 40 23 -37 c13 -21 26 -38 28 -38 2
0 3 24 3 53 -2 51 -2 51 -8 12 l-6 -40 -18 32 c-28 52 -37 49 -36 -9z"/>
<path d="M3024 428 c9 -15 17 -40 17 -55 2 -27 2 -27 6 -3 3 14 14 37 25 52
11 16 15 28 9 28 -6 0 -11 -3 -11 -7 0 -5 -5 -15 -10 -23 -9 -13 -13 -11 -31
10 l-21 25 16 -27z"/>
<path d="M3111 400 l2 -55 7 45 c4 25 4 49 -1 55 -5 5 -8 -13 -8 -45z"/>
<path d="M3177 403 c8 -65 13 -67 13 -5 0 29 -4 52 -10 52 -6 0 -7 -19 -3 -47z"/>
<path d="M3268 425 c-22 -49 25 -98 60 -63 7 7 12 24 12 38 0 51 -52 69 -72
25z m57 -25 c0 -28 -4 -36 -22 -38 -24 -4 -38 25 -28 59 5 14 14 19 28 17 18
-2 22 -10 22 -38z"/>
<path d="M1968 430 c-5 -17 3 -80 11 -80 7 0 6 79 -2 86 -3 3 -7 0 -9 -6z"/>
<path d="M841 368 c1 -29 3 -46 6 -37 2 10 13 19 24 22 30 8 23 61 -8 65 -22
3 -23 0 -22 -50z m39 17 c0 -16 -6 -25 -15 -25 -9 0 -15 9 -15 25 0 16 6 25
15 25 9 0 15 -9 15 -25z"/>
<path d="M914 406 c-10 -26 1 -51 24 -54 12 -2 22 1 22 6 0 6 -9 8 -20 5 -11
-3 -20 -1 -20 5 0 6 12 13 28 15 l27 4 -27 2 c-16 0 -28 6 -28 12 0 6 9 9 20
6 11 -3 18 -1 14 4 -8 14 -34 11 -40 -5z"/>
<path d="M980 415 c0 -5 5 -17 10 -25 5 -8 10 -10 10 -5 0 6 -5 17 -10 25 -5
8 -10 11 -10 5z"/>
<path d="M1025 409 c-4 -6 -5 -12 -2 -15 2 -3 7 2 10 11 7 17 1 20 -8 4z"/>
<path d="M1051 383 c1 -36 2 -37 8 -8 3 17 13 30 21 30 8 0 18 -13 22 -30 6
-29 6 -29 5 5 -2 30 -6 35 -29 38 -26 3 -28 1 -27 -35z"/>
<path d="M1136 411 c-4 -5 3 -7 16 -3 14 3 19 2 14 -6 -4 -7 -14 -12 -22 -12
-8 0 -14 -9 -14 -20 0 -15 6 -19 25 -18 22 2 26 7 23 33 -3 30 -30 47 -42 26z
m29 -41 c-3 -5 -10 -10 -16 -10 -5 0 -9 5 -9 10 0 6 7 10 16 10 8 0 12 -4 9
-10z"/>
<path d="M1319 404 c-9 -11 -10 -20 -2 -32 24 -38 62 -15 48 29 -8 23 -28 24
-46 3z m38 -10 c8 -21 -13 -42 -28 -27 -13 13 -5 43 11 43 6 0 13 -7 17 -16z"/>
<path d="M1393 385 c0 -22 2 -30 4 -17 2 12 2 30 0 40 -3 9 -5 -1 -4 -23z"/>
<path d="M1417 413 c6 -4 13 -22 16 -38 4 -27 5 -27 3 4 0 21 -7 36 -16 38
-10 3 -11 2 -3 -4z"/>
<path d="M1457 413 c6 -4 13 -22 16 -38 4 -27 5 -27 3 4 0 21 -7 36 -16 38
-10 3 -11 2 -3 -4z"/>
<path d="M1504 406 c-10 -26 0 -51 21 -51 16 0 20 7 20 30 0 33 -30 49 -41 21z
m36 -21 c0 -16 -6 -25 -15 -25 -9 0 -15 9 -15 25 0 16 6 25 15 25 9 0 15 -9
15 -25z"/>
<path d="M1570 415 c0 -5 5 -17 10 -25 5 -8 10 -10 10 -5 0 6 -5 17 -10 25 -5
8 -10 11 -10 5z"/>
<path d="M1615 409 c-4 -6 -5 -12 -2 -15 2 -3 7 2 10 11 7 17 1 20 -8 4z"/>
<path d="M1641 383 c1 -36 2 -36 8 -9 9 42 29 44 34 4 l4 -33 1 38 c2 33 0 37
-23 37 -22 0 -25 -4 -24 -37z"/>
<path d="M1723 385 c0 -22 2 -30 4 -17 2 12 2 30 0 40 -3 9 -5 -1 -4 -23z"/>
<path d="M1793 385 c0 -22 2 -30 4 -17 2 12 2 30 0 40 -3 9 -5 -1 -4 -23z"/>
<path d="M1821 383 c1 -36 2 -36 8 -9 9 42 29 44 34 4 l4 -33 1 38 c2 33 0 37
-23 37 -22 0 -25 -4 -24 -37z"/>
<path d="M1895 410 c-8 -14 3 -30 21 -30 8 0 14 -5 14 -11 0 -6 -9 -9 -20 -6
-11 3 -18 1 -14 -4 11 -18 44 -10 44 11 0 11 -6 20 -14 20 -8 0 -18 5 -22 12
-5 8 0 9 14 6 12 -4 20 -2 16 3 -7 12 -31 11 -39 -1z"/>
<path d="M2006 411 c-4 -5 3 -7 14 -4 11 3 20 1 20 -5 0 -5 -9 -12 -21 -15
-22 -6 -22 -29 -1 -33 7 -1 8 0 2 3 -15 7 -12 23 4 23 8 0 17 -8 19 -17 3 -10
5 -1 6 20 1 30 -2 37 -18 37 -11 0 -22 -4 -25 -9z"/>
<path d="M2116 411 c-4 -5 3 -7 16 -3 14 3 19 2 14 -6 -4 -7 -14 -12 -22 -12
-8 0 -14 -9 -14 -20 0 -15 6 -19 25 -18 22 2 26 7 23 33 -3 30 -30 47 -42 26z
m29 -41 c-3 -5 -10 -10 -16 -10 -5 0 -9 5 -9 10 0 6 7 10 16 10 8 0 12 -4 9
-10z"/>
<path d="M2187 413 c-4 -3 -7 -17 -7 -30 0 -26 26 -41 42 -25 8 8 5 9 -11 5
-18 -4 -21 -1 -21 22 0 22 4 26 20 22 11 -3 18 -1 14 4 -6 11 -28 12 -37 2z"/>
<path d="M2256 411 c-3 -5 3 -7 14 -4 11 3 20 1 20 -5 0 -6 -12 -13 -27 -15
-26 -4 -25 -4 5 -6 27 -1 33 2 30 16 -4 20 -33 29 -42 14z"/>
<path d="M3131 400 c0 -8 4 -24 8 -34 6 -15 10 -16 16 -7 4 7 3 16 -2 20 -6 3
-13 13 -16 21 -5 13 -5 13 -6 0z"/>
<path d="M2698 383 c7 -3 16 -2 19 1 4 3 -2 6 -13 5 -11 0 -14 -3 -6 -6z"/>
<path d="M3218 383 c7 -3 16 -2 19 1 4 3 -2 6 -13 5 -11 0 -14 -3 -6 -6z"/>
<path d="M1007 373 c-4 -3 -7 -11 -7 -17 0 -6 5 -5 12 2 6 6 9 14 7 17 -3 3
-9 2 -12 -2z"/>
<path d="M1597 373 c-4 -3 -7 -11 -7 -17 0 -6 5 -5 12 2 6 6 9 14 7 17 -3 3
-9 2 -12 -2z"/>
<path d="M2257 358 c2 -5 10 -8 18 -8 8 0 16 3 18 8 3 4 -5 7 -18 7 -13 0 -21
-3 -18 -7z"/>
</g>
</svg>
